<?xml version="1.0" encoding="utf-8"?>
<!-- Generator: Adobe Illustrator 16.0.0, SVG Export Plug-In . SVG Version: 6.00 Build 0)  -->
<!DOCTYPE svg PUBLIC "-//W3C//DTD SVG 1.1//EN" "http://www.w3.org/Graphics/SVG/1.1/DTD/svg11.dtd">
<svg version="1.1" xmlns="http://www.w3.org/2000/svg" xmlns:xlink="http://www.w3.org/1999/xlink" x="0px" y="0px" width="557px"
	 height="279px" viewBox="0 0 557 279" enable-background="new 0 0 557 279" xml:space="preserve">
<g id="Background" display="none">
	<rect x="-141" y="-299.969" display="inline" fill="#DAE3F1" width="843" height="481.67"/>
	<rect x="-143" y="193" display="inline" fill="#A9B4C4" width="1027" height="110"/>
	<g display="inline">
		<rect x="27" y="235" fill="#9CA6B5" width="4" height="3"/>
		<rect x="180" y="227" fill="#9CA6B5" width="4" height="2"/>
		<rect x="502" y="243" fill="#9CA6B5" width="4" height="2"/>
		<rect x="549" y="225" fill="#9CA6B5" width="4" height="2"/>
	</g>
	<g display="inline">
		<rect x="220" y="222" fill="#B4C0D1" width="4" height="3"/>
		<rect x="353" y="203" fill="#B4C0D1" width="4" height="3"/>
		<rect x="459" y="197" fill="#B4C0D1" width="4" height="2"/>
	</g>
</g>
<g id="Foreground" display="none">
</g>
<g id="Bus">
	<g>
		<path fill="#5B99F9" stroke="#1E3251" stroke-width="4" stroke-miterlimit="10" d="M541,206.891v-17.273V96.18l-6.658-66.982
			C532.969,21.15,527.066,16,518.394,16H33.021C24.348,16,13,18.018,13,26.691v8.244V235h47.899
			c0.106-19,15.09-33.369,33.562-33.369S127.916,216,128.022,235h12.181c0.105-19,15.09-33.369,33.561-33.369
			c18.472,0,33.456,14.369,33.562,33.369H430.72c0.106-19,15.09-33.369,33.562-33.369S497.737,216,497.844,235H541v-4.947l8-2.072
			v-18.734L541,206.891z"/>
		<path opacity="0.4" fill="#5D7DAD" d="M504.719,257.143c0-7.727-110.176-2.355-237.125-2.355s-214.646-3.289-214.379,3.777
			c0.035,0.953-1.631,2.775,22.158,3.518c-0.277,0.369-0.424,0.752-0.424,1.145c0,3.141,9.351,5.686,20.886,5.686
			c11.534,0,20.886-2.545,20.886-5.686c0-0.059-0.01-0.115-0.017-0.174c11.119,0.197,23.177,0.373,36.021,0.527
			c0.668,2.975,9.741,5.332,20.843,5.332c10.617,0,19.676-3.287,21.003-6.078c23.028,0.16,47.777,0,73.414,0
			c70.516,0,133.21,0.725,175.375-0.301c-0.103,0.229-0.161,0.459-0.161,0.693c0,3.141,9.351,5.686,20.886,5.686
			c11.536,0,20.886-2.545,20.886-5.686c0-0.744-0.532-1.455-1.491-2.107C492.521,260.613,504.719,260.611,504.719,257.143z"/>
		<g>
			<path fill="#9DC2FB" d="M525.918,35.41c0,0-0.17-4.51-2.961-7.982c-3.493-4.346-11.1-4.285-11.1-4.285L428.004,23h-68.312
				h-68.311h-68.31h-68.312H86.449h-70.09c0,0-1.359,1.369-1.359,3.691C15,28.426,15,80,15,80h71.449h68.312h68.312h68.31h68.311
				h68.312h103.178L525.918,35.41z"/>
		</g>
		<path fill="#FFEA9C" d="M474.88,174.932c-48.467,2.607-64.013,22.455-122.228,27.264c-0.395-12.58-10.512-22.662-23.152-22.662
			c-12.818,0-23.138,10.379-23.252,23.205c-65.693-4.938-139.034-72.316-190.883-122.316L15,80.477V233h43.957
			c1.416-20,16.998-33.375,35.504-33.375S128.414,213,129.914,233h8.417c1.167-19,16.928-33.416,35.433-33.416
			c18.508,0,34.525,14.416,35.65,33.416h219.751c1.438-18,15.659-33,34.166-33s34.667,12,36.417,33H539v-4.453l8-2.125v-15.656
			l-8-2.406v-23.938C539,184.422,533.528,171.775,474.88,174.932z"/>
		<path fill="none" stroke="#1E3251" stroke-width="2" stroke-miterlimit="10" d="M540.998,185.977c0,0-9.012-14.201-67.66-11.045
			c-48.468,2.607-63.742,22.455-121.958,27.264c-0.394-12.58-10.376-22.662-23.017-22.662c-12.818,0-23.067,10.379-23.182,23.205
			c-65.693-4.938-137.791-71.852-189.643-121.852"/>
		<g>
			<circle fill="#53688A" stroke="#1E3251" stroke-width="4" stroke-miterlimit="10" cx="173.764" cy="234.568" r="27.285"/>
			<circle fill="#7E8EA7" stroke="#1E3251" stroke-width="2" stroke-miterlimit="10" cx="173.764" cy="234.568" r="14.119"/>
			<g>
				<g>
					<path fill="#1E3251" d="M179.454,227.434c0.341-0.432,0.837-0.668,1.391-0.635c0.562,0.012,1.154,0.32,1.592,0.852
						c0.204,0.275,0.364,0.568,0.444,0.867c0.071,0.305,0.084,0.604,0.039,0.873c-0.093,0.547-0.452,0.988-0.936,1.219
						c-0.496,0.236-1.014,0.244-1.483,0.152c-0.237-0.047-0.454-0.125-0.637-0.238c-0.192-0.109-0.371-0.238-0.5-0.42
						c-0.284-0.338-0.388-0.785-0.393-1.252C178.986,228.373,179.122,227.854,179.454,227.434z"/>
				</g>
				<g>
					<path fill="#1E3251" d="M171.733,225.67c-0.124-0.531,0-1.076,0.371-1.482c0.362-0.436,0.972-0.695,1.659-0.717
						c0.688,0.021,1.298,0.281,1.66,0.717c0.371,0.406,0.494,0.951,0.371,1.482c-0.122,0.525-0.441,0.947-0.807,1.262
						c-0.367,0.287-0.781,0.492-1.225,0.469c-0.442,0.023-0.855-0.182-1.223-0.469C172.174,226.617,171.855,226.195,171.733,225.67z
						"/>
				</g>
				<g>
					<path fill="#1E3251" d="M165.544,230.609c-0.483-0.23-0.843-0.672-0.936-1.219c-0.045-0.27-0.032-0.568,0.039-0.873
						c0.08-0.299,0.239-0.592,0.444-0.867c0.438-0.531,1.029-0.84,1.592-0.852c0.554-0.033,1.05,0.203,1.391,0.635
						c0.332,0.42,0.469,0.939,0.482,1.418c-0.004,0.467-0.109,0.914-0.393,1.252c-0.129,0.182-0.309,0.311-0.5,0.42
						c-0.184,0.113-0.4,0.191-0.637,0.238C166.558,230.854,166.039,230.846,165.544,230.609z"/>
				</g>
				<g>
					<path fill="#1E3251" d="M165.544,238.527c-0.481,0.234-1.05,0.24-1.536-0.027c-0.486-0.264-0.909-0.789-1.059-1.465
						c-0.142-0.674-0.022-1.33,0.325-1.777c0.333-0.451,0.814-0.691,1.357-0.689c0.542,0.002,1.046,0.221,1.417,0.51
						c0.355,0.295,0.648,0.654,0.733,1.086c0.095,0.432,0.019,0.867-0.196,1.297C166.367,237.885,166.037,238.287,165.544,238.527z"
						/>
				</g>
				<g>
					<path fill="#1E3251" d="M171.733,243.467c-0.118,0.529-0.461,0.951-0.979,1.182c-0.502,0.205-1.189,0.229-1.803-0.09
						c-0.631-0.281-1.041-0.832-1.191-1.354c-0.143-0.549-0.026-1.078,0.314-1.5c0.34-0.422,0.822-0.678,1.273-0.781
						c0.471-0.123,0.906-0.08,1.312,0.096c0.389,0.207,0.693,0.52,0.889,0.967C171.749,242.4,171.851,242.938,171.733,243.467z"/>
				</g>
				<g>
					<path fill="#1E3251" d="M179.454,241.705c0.341,0.422,0.456,0.951,0.313,1.5c-0.15,0.521-0.559,1.072-1.19,1.354
						c-0.614,0.318-1.302,0.295-1.804,0.09c-0.518-0.23-0.861-0.652-0.979-1.182s-0.016-1.066,0.185-1.48
						c0.195-0.447,0.5-0.76,0.89-0.967c0.405-0.176,0.841-0.219,1.311-0.096C178.632,241.027,179.114,241.283,179.454,241.705z"/>
				</g>
				<g>
					<path fill="#1E3251" d="M182.896,234.568c0.543-0.002,1.023,0.238,1.357,0.689c0.348,0.447,0.467,1.104,0.325,1.777
						c-0.149,0.676-0.573,1.201-1.058,1.465c-0.488,0.268-1.056,0.262-1.537,0.027c-0.493-0.24-0.822-0.643-1.042-1.066
						c-0.216-0.43-0.292-0.865-0.196-1.297c0.085-0.432,0.377-0.791,0.733-1.086C181.85,234.789,182.354,234.57,182.896,234.568z"/>
				</g>
			</g>
		</g>
		<g>
			<path fill="#9DC2FB" stroke="#1E3251" stroke-width="2" stroke-miterlimit="10" d="M534.358,98c-3.469,0-6.358,1.703-6.358,5.172
				v58.104c0,3.469,2.89,7.725,6.358,7.725H540V98H534.358z"/>
		</g>
		<g>
			<g>
				<polygon fill="#9DC2FB" points="420.293,110 351.981,110 283.671,110 215.361,110 147.049,110 79,110 79,168 147.049,168 
					215.361,168 283.671,168 351.981,168 420.293,168 513,168 513,110 				"/>
			</g>
		</g>
		<g>
			<path fill="#5B99F9" d="M312,223v-7.546c2-1.106,3.512-4.004,3.512-7.134c0-0.804,0.092-2.521,0.11-4.134
				c0.016-1.434,0.067-2.784,0.067-3.343c0-7.053,5.383-12.583,12.246-12.627l0.109,0.021l0.126-0.021
				c6.869,0.037,12.243,5.57,12.243,12.627c0,0.559,0.017,1.909,0.033,3.343c0.019,1.612,0.111,3.33,0.111,4.134
				c0,3.13,1.441,6.028,3.441,7.134V223H312z"/>
			<g>
				<path fill="#28436C" d="M327.888,189.218l0.198,0.033l0.181-0.033c6.266,0.085,11.149,5.161,11.149,11.626
					c0,0.561,0.016,1.915,0.032,3.354c0.019,1.607,0.11,3.321,0.11,4.122c0,3.264,1.441,6.232,3.441,7.681V222h-14.929H313v-5.999
					c2-1.448,3.512-4.417,3.512-7.681c0-0.801,0.092-2.515,0.11-4.123c0.016-1.438,0.067-2.793,0.067-3.354
					C316.689,194.375,321.617,189.296,327.888,189.218 M328.106,187.217c-0.021,0-0.024,0.002-0.035,0.004
					c-0.012-0.002-0.015-0.004-0.036-0.004c-7.525,0-13.31,6.102-13.31,13.627c0,1.186-0.214,5.959-0.214,7.477
					c0,3.238-1.512,5.912-3.512,6.488V224h17.071H345v-9.191c-2-0.576-3.441-3.25-3.441-6.488c0-1.518-0.106-6.291-0.106-7.477
					C341.452,193.318,335.632,187.217,328.106,187.217L328.106,187.217z"/>
			</g>
		</g>
		<rect x="273" y="175" fill="none" stroke="#1E3251" stroke-width="2" stroke-miterlimit="10" width="10" height="4"/>
		<rect x="410" y="175" fill="none" stroke="#1E3251" stroke-width="2" stroke-miterlimit="10" width="11" height="4"/>
		<rect x="504" y="216" fill="none" stroke="#1E3251" stroke-width="2" stroke-miterlimit="10" width="31" height="18"/>
		<line fill="none" stroke="#1E3251" stroke-width="2" stroke-miterlimit="10" x1="509" y1="229" x2="515" y2="229"/>
		<line fill="none" stroke="#1E3251" stroke-width="2" stroke-miterlimit="10" x1="524" y1="229" x2="530" y2="229"/>
		<g>
			<circle fill="#53688A" stroke="#1E3251" stroke-width="4" stroke-miterlimit="10" cx="94.461" cy="234.568" r="27.285"/>
			<circle fill="#7E8EA7" stroke="#1E3251" stroke-width="2" stroke-miterlimit="10" cx="94.461" cy="234.568" r="14.119"/>
			<g>
				<g>
					<path fill="#1E3251" d="M100.15,227.434c0.341-0.432,0.837-0.668,1.391-0.635c0.562,0.012,1.154,0.32,1.592,0.852
						c0.205,0.275,0.364,0.568,0.444,0.867c0.071,0.305,0.085,0.604,0.039,0.873c-0.093,0.547-0.452,0.988-0.935,1.219
						c-0.496,0.236-1.014,0.244-1.484,0.152c-0.236-0.047-0.453-0.125-0.637-0.238c-0.191-0.109-0.371-0.238-0.5-0.42
						c-0.283-0.338-0.389-0.785-0.393-1.252C99.682,228.373,99.818,227.854,100.15,227.434z"/>
				</g>
				<g>
					<path fill="#1E3251" d="M92.43,225.67c-0.123-0.531,0-1.076,0.371-1.482c0.362-0.436,0.972-0.695,1.66-0.717
						c0.688,0.021,1.297,0.281,1.66,0.717c0.371,0.406,0.494,0.951,0.371,1.482c-0.123,0.525-0.441,0.947-0.809,1.262
						c-0.366,0.287-0.78,0.492-1.223,0.469c-0.443,0.023-0.857-0.182-1.224-0.469C92.871,226.617,92.552,226.195,92.43,225.67z"/>
				</g>
				<g>
					<path fill="#1E3251" d="M86.24,230.609c-0.482-0.23-0.843-0.672-0.936-1.219c-0.045-0.27-0.031-0.568,0.039-0.873
						c0.08-0.299,0.24-0.592,0.445-0.867c0.437-0.531,1.028-0.84,1.592-0.852c0.553-0.033,1.049,0.203,1.39,0.635
						c0.332,0.42,0.469,0.939,0.482,1.418c-0.004,0.467-0.108,0.914-0.393,1.252c-0.129,0.182-0.308,0.311-0.499,0.42
						c-0.184,0.113-0.4,0.191-0.638,0.238C87.254,230.854,86.736,230.846,86.24,230.609z"/>
				</g>
				<g>
					<path fill="#1E3251" d="M86.24,238.527c-0.481,0.234-1.049,0.24-1.536-0.027c-0.485-0.264-0.909-0.789-1.06-1.465
						c-0.141-0.674-0.021-1.33,0.326-1.777c0.334-0.451,0.814-0.691,1.357-0.689c0.542,0.002,1.047,0.221,1.417,0.51
						c0.356,0.295,0.648,0.654,0.733,1.086c0.096,0.432,0.02,0.867-0.196,1.297C87.063,237.885,86.734,238.287,86.24,238.527z"/>
				</g>
				<g>
					<path fill="#1E3251" d="M92.43,243.467c-0.117,0.529-0.46,0.951-0.979,1.182c-0.502,0.205-1.189,0.229-1.803-0.09
						c-0.632-0.281-1.041-0.832-1.191-1.354c-0.143-0.549-0.027-1.078,0.313-1.5c0.34-0.422,0.822-0.678,1.274-0.781
						c0.471-0.123,0.905-0.08,1.311,0.096c0.39,0.207,0.695,0.52,0.891,0.967C92.445,242.4,92.547,242.938,92.43,243.467z"/>
				</g>
				<g>
					<path fill="#1E3251" d="M100.15,241.705c0.342,0.422,0.456,0.951,0.314,1.5c-0.15,0.521-0.561,1.072-1.191,1.354
						c-0.613,0.318-1.301,0.295-1.803,0.09c-0.519-0.23-0.861-0.652-0.979-1.182c-0.119-0.529-0.016-1.066,0.184-1.48
						c0.195-0.447,0.5-0.76,0.89-0.967c0.405-0.176,0.841-0.219,1.312-0.096C99.328,241.027,99.811,241.283,100.15,241.705z"/>
				</g>
				<g>
					<path fill="#1E3251" d="M103.593,234.568c0.544-0.002,1.024,0.238,1.357,0.689c0.349,0.447,0.468,1.104,0.326,1.777
						c-0.15,0.676-0.573,1.201-1.06,1.465c-0.486,0.268-1.055,0.262-1.535,0.027c-0.494-0.24-0.823-0.643-1.042-1.066
						c-0.216-0.43-0.292-0.865-0.197-1.297c0.085-0.432,0.378-0.791,0.734-1.086C102.547,234.789,103.051,234.57,103.593,234.568z"
						/>
				</g>
			</g>
		</g>
		<g>
			<circle fill="#53688A" stroke="#1E3251" stroke-width="4" stroke-miterlimit="10" cx="464.281" cy="234.568" r="27.285"/>
			<circle fill="#7E8EA7" stroke="#1E3251" stroke-width="2" stroke-miterlimit="10" cx="464.282" cy="234.568" r="14.119"/>
			<g>
				<g>
					<path fill="#1E3251" d="M469.972,227.434c0.341-0.432,0.837-0.668,1.391-0.635c0.562,0.012,1.154,0.32,1.591,0.852
						c0.206,0.275,0.364,0.568,0.445,0.867c0.07,0.305,0.084,0.604,0.038,0.873c-0.092,0.547-0.451,0.988-0.936,1.219
						c-0.495,0.236-1.013,0.244-1.483,0.152c-0.236-0.047-0.453-0.125-0.636-0.238c-0.192-0.109-0.371-0.238-0.5-0.42
						c-0.284-0.338-0.389-0.785-0.393-1.252C469.504,228.373,469.64,227.854,469.972,227.434z"/>
				</g>
				<g>
					<path fill="#1E3251" d="M462.251,225.67c-0.124-0.531,0-1.076,0.371-1.482c0.361-0.436,0.971-0.695,1.659-0.717
						c0.688,0.021,1.297,0.281,1.66,0.717c0.371,0.406,0.495,0.951,0.371,1.482c-0.122,0.525-0.441,0.947-0.808,1.262
						c-0.366,0.287-0.78,0.492-1.224,0.469c-0.442,0.023-0.856-0.182-1.224-0.469C462.691,226.617,462.372,226.195,462.251,225.67z"
						/>
				</g>
				<g>
					<path fill="#1E3251" d="M456.062,230.609c-0.483-0.23-0.843-0.672-0.936-1.219c-0.045-0.27-0.032-0.568,0.038-0.873
						c0.08-0.299,0.24-0.592,0.445-0.867c0.437-0.531,1.029-0.84,1.592-0.852c0.554-0.033,1.05,0.203,1.391,0.635
						c0.331,0.42,0.468,0.939,0.481,1.418c-0.003,0.467-0.109,0.914-0.393,1.252c-0.129,0.182-0.308,0.311-0.5,0.42
						c-0.183,0.113-0.399,0.191-0.636,0.238C457.075,230.854,456.557,230.846,456.062,230.609z"/>
				</g>
				<g>
					<path fill="#1E3251" d="M456.062,238.527c-0.481,0.234-1.05,0.24-1.537-0.027c-0.485-0.264-0.909-0.789-1.059-1.465
						c-0.142-0.674-0.022-1.33,0.326-1.777c0.333-0.451,0.813-0.691,1.357-0.689c0.542,0.002,1.045,0.221,1.417,0.51
						c0.355,0.295,0.648,0.654,0.732,1.086c0.095,0.432,0.02,0.867-0.195,1.297C456.884,237.885,456.555,238.287,456.062,238.527z"
						/>
				</g>
				<g>
					<path fill="#1E3251" d="M462.251,243.467c-0.118,0.529-0.461,0.951-0.979,1.182c-0.502,0.205-1.189,0.229-1.803-0.09
						c-0.631-0.281-1.041-0.832-1.191-1.354c-0.142-0.549-0.027-1.078,0.314-1.5c0.339-0.422,0.822-0.678,1.273-0.781
						c0.471-0.123,0.906-0.08,1.312,0.096c0.389,0.207,0.694,0.52,0.889,0.967C462.267,242.4,462.368,242.938,462.251,243.467z"/>
				</g>
				<g>
					<path fill="#1E3251" d="M469.972,241.705c0.342,0.422,0.456,0.951,0.313,1.5c-0.15,0.521-0.56,1.072-1.191,1.354
						c-0.613,0.318-1.301,0.295-1.803,0.09c-0.519-0.23-0.861-0.652-0.979-1.182c-0.118-0.529-0.016-1.066,0.184-1.48
						c0.196-0.447,0.501-0.76,0.891-0.967c0.405-0.176,0.841-0.219,1.311-0.096C469.148,241.027,469.632,241.283,469.972,241.705z"
						/>
				</g>
				<g>
					<path fill="#1E3251" d="M473.414,234.568c0.542-0.002,1.024,0.238,1.357,0.689c0.348,0.447,0.467,1.104,0.325,1.777
						c-0.149,0.676-0.573,1.201-1.059,1.465c-0.486,0.268-1.055,0.262-1.537,0.027c-0.492-0.24-0.821-0.643-1.041-1.066
						c-0.216-0.43-0.292-0.865-0.196-1.297c0.084-0.432,0.377-0.791,0.732-1.086C472.368,234.789,472.871,234.57,473.414,234.568z"
						/>
				</g>
			</g>
		</g>
		<rect x="134" y="175" fill="none" stroke="#1E3251" stroke-width="2" stroke-miterlimit="10" width="10" height="4"/>
		<g>
			<g>
				<line fill="none" stroke="#1E3251" stroke-width="2" stroke-miterlimit="10" x1="54" y1="124" x2="63" y2="124"/>
			</g>
			<g>
				<line fill="none" stroke="#1E3251" stroke-width="2" stroke-miterlimit="10" x1="54" y1="130" x2="63" y2="130"/>
			</g>
			<g>
				<line fill="none" stroke="#1E3251" stroke-width="2" stroke-miterlimit="10" x1="54" y1="136" x2="63" y2="136"/>
			</g>
			<g>
				<line fill="none" stroke="#1E3251" stroke-width="2" stroke-miterlimit="10" x1="54" y1="142" x2="63" y2="142"/>
			</g>
			<g>
				<line fill="none" stroke="#1E3251" stroke-width="2" stroke-miterlimit="10" x1="54" y1="149" x2="63" y2="149"/>
			</g>
			<g>
				<line fill="none" stroke="#1E3251" stroke-width="2" stroke-miterlimit="10" x1="54" y1="155" x2="63" y2="155"/>
			</g>
			<g>
				<line fill="none" stroke="#1E3251" stroke-width="2" stroke-miterlimit="10" x1="54" y1="161" x2="63" y2="161"/>
			</g>
			<g>
				<line fill="none" stroke="#1E3251" stroke-width="2" stroke-miterlimit="10" x1="54" y1="167" x2="63" y2="167"/>
			</g>
		</g>
		<g>
			<g>
				<line fill="none" stroke="#1E3251" stroke-width="2" stroke-miterlimit="10" x1="39" y1="124" x2="48" y2="124"/>
			</g>
			<g>
				<line fill="none" stroke="#1E3251" stroke-width="2" stroke-miterlimit="10" x1="39" y1="130" x2="48" y2="130"/>
			</g>
			<g>
				<line fill="none" stroke="#1E3251" stroke-width="2" stroke-miterlimit="10" x1="39" y1="136" x2="48" y2="136"/>
			</g>
			<g>
				<line fill="none" stroke="#1E3251" stroke-width="2" stroke-miterlimit="10" x1="39" y1="142" x2="48" y2="142"/>
			</g>
			<g>
				<line fill="none" stroke="#1E3251" stroke-width="2" stroke-miterlimit="10" x1="39" y1="149" x2="48" y2="149"/>
			</g>
			<g>
				<line fill="none" stroke="#1E3251" stroke-width="2" stroke-miterlimit="10" x1="39" y1="155" x2="48" y2="155"/>
			</g>
			<g>
				<line fill="none" stroke="#1E3251" stroke-width="2" stroke-miterlimit="10" x1="39" y1="161" x2="48" y2="161"/>
			</g>
			<g>
				<line fill="none" stroke="#1E3251" stroke-width="2" stroke-miterlimit="10" x1="39" y1="167" x2="48" y2="167"/>
			</g>
		</g>
		<g>
			<g>
				<line fill="none" stroke="#1E3251" stroke-width="2" stroke-miterlimit="10" x1="25" y1="124" x2="34" y2="124"/>
			</g>
			<g>
				<line fill="none" stroke="#1E3251" stroke-width="2" stroke-miterlimit="10" x1="25" y1="130" x2="34" y2="130"/>
			</g>
			<g>
				<line fill="none" stroke="#1E3251" stroke-width="2" stroke-miterlimit="10" x1="25" y1="136" x2="34" y2="136"/>
			</g>
			<g>
				<line fill="none" stroke="#1E3251" stroke-width="2" stroke-miterlimit="10" x1="25" y1="142" x2="34" y2="142"/>
			</g>
			<g>
				<line fill="none" stroke="#1E3251" stroke-width="2" stroke-miterlimit="10" x1="25" y1="149" x2="34" y2="149"/>
			</g>
			<g>
				<line fill="none" stroke="#1E3251" stroke-width="2" stroke-miterlimit="10" x1="25" y1="155" x2="34" y2="155"/>
			</g>
			<g>
				<line fill="none" stroke="#1E3251" stroke-width="2" stroke-miterlimit="10" x1="25" y1="161" x2="34" y2="161"/>
			</g>
			<g>
				<line fill="none" stroke="#1E3251" stroke-width="2" stroke-miterlimit="10" x1="25" y1="167" x2="34" y2="167"/>
			</g>
		</g>
		<g>
			<g>
				<line fill="none" stroke="#1E3251" stroke-width="2" stroke-miterlimit="10" x1="25" y1="204" x2="34" y2="204"/>
			</g>
			<g>
				<line fill="none" stroke="#1E3251" stroke-width="2" stroke-miterlimit="10" x1="25" y1="210" x2="34" y2="210"/>
			</g>
			<g>
				<line fill="none" stroke="#1E3251" stroke-width="2" stroke-miterlimit="10" x1="25" y1="216" x2="34" y2="216"/>
			</g>
			<g>
				<line fill="none" stroke="#1E3251" stroke-width="2" stroke-miterlimit="10" x1="25" y1="222" x2="34" y2="222"/>
			</g>
		</g>
		<g>
			<g>
				<line fill="none" stroke="#1E3251" stroke-width="2" stroke-miterlimit="10" x1="39" y1="204" x2="48" y2="204"/>
			</g>
			<g>
				<line fill="none" stroke="#1E3251" stroke-width="2" stroke-miterlimit="10" x1="39" y1="210" x2="48" y2="210"/>
			</g>
			<g>
				<line fill="none" stroke="#1E3251" stroke-width="2" stroke-miterlimit="10" x1="39" y1="216" x2="48" y2="216"/>
			</g>
			<g>
				<line fill="none" stroke="#1E3251" stroke-width="2" stroke-miterlimit="10" x1="39" y1="222" x2="48" y2="222"/>
			</g>
		</g>
		<line fill="none" stroke="#1E3251" stroke-width="2" stroke-miterlimit="10" x1="540" y1="208" x2="540" y2="229"/>
		<polygon fill="#ADCCFB" points="389.291,79.828 345.842,79.879 400.842,24.879 444.071,25.047 		"/>
		<polygon fill="#ADCCFB" points="408.291,79.828 402.842,79.879 457.842,24.879 463.071,25.047 		"/>
		<polygon fill="#ADCCFB" points="296.291,168.828 258.842,168.879 313.842,113.879 351.071,114.047 		"/>
		<polygon fill="#ADCCFB" points="315.291,168.828 309.842,168.879 364.842,113.879 370.071,114.047 		"/>
		<path fill="#7CAEFA" d="M524.998,30c0,0-1.645-2.906-4.146-4.24S512.189,25,512.189,25H19v-2h-4v58h4V49.359
			c0,0-0.438-9.836,3.937-14.836S34.561,30,34.561,30H524.998z"/>
		<g>
			<rect x="80" y="24" fill="none" stroke="#1E3251" stroke-width="2" stroke-miterlimit="10" width="68" height="57"/>
			<rect x="148" y="24" fill="none" stroke="#1E3251" stroke-width="2" stroke-miterlimit="10" width="68" height="57"/>
			<rect x="216" y="24" fill="none" stroke="#1E3251" stroke-width="2" stroke-miterlimit="10" width="69" height="57"/>
			<rect x="285" y="24" fill="none" stroke="#1E3251" stroke-width="2" stroke-miterlimit="10" width="68" height="57"/>
			<rect x="353" y="24" fill="none" stroke="#1E3251" stroke-width="2" stroke-miterlimit="10" width="68" height="57"/>
			<path fill="none" stroke="#1E3251" stroke-width="2" stroke-miterlimit="10" d="M421,23.922l90.374,0.125
				c0,0,7.534-0.16,10.804,2.266c4.256,3.158,4.731,9.848,4.731,9.848l4.818,44.727L421,80.922V23.922z"/>
			<path fill="none" stroke="#1E3251" stroke-width="2" stroke-miterlimit="10" d="M13,81h67V24H13.863c0,0-0.863,0.369-0.863,2.691
				C13,28.426,13,81,13,81z"/>
		</g>
		<path fill="#7CAEFA" d="M515,112H84v-1h-3v1h-1v5h1v52h3v-45.16c0,0-0.718-2.1,1.833-4.879c1.979-2.156,4.499-1.961,4.499-1.961
			H515V112z"/>
		<g>
			<rect x="285" y="111" fill="none" stroke="#1E3251" stroke-width="2" stroke-miterlimit="10" width="68" height="58"/>
			<rect x="353" y="111" fill="none" stroke="#1E3251" stroke-width="2" stroke-miterlimit="10" width="69" height="58"/>
			<rect x="422" y="111" fill="none" stroke="#1E3251" stroke-width="2" stroke-miterlimit="10" width="92" height="58"/>
			<rect x="148" y="111" fill="none" stroke="#1E3251" stroke-width="2" stroke-miterlimit="10" width="68" height="58"/>
			<rect x="80" y="111" fill="none" stroke="#1E3251" stroke-width="2" stroke-miterlimit="10" width="68" height="58"/>
			<rect x="216" y="111" fill="none" stroke="#1E3251" stroke-width="2" stroke-miterlimit="10" width="69" height="58"/>
		</g>
		<g opacity="0.2">
			<path fill="#1E3251" d="M512.995,122.355c-0.105-1.312-1.141-1.365-1.896-1.402l-6.601-0.031c-0.553,0-0.499,0.447-0.499,1v21
				c0,0.553-0.555,1.078-0.002,1.078h5.531c0.759,0,1.44-0.32,1.972-0.855c1.412-1.42,1.515-4.25,1.499-7.004L512.995,122.355z"/>
			<path fill="#1E3251" d="M509,114.676V121h2v-6.119c2-0.207,3-1.812,3-3.385v-5.146c0-1.107-1.592-2.35-4.4-2.35h-0.203
				c-1.91,0-3.596,0.537-3.848,2.098c-0.029,0.092,0.451,0.146,0.451,0.252v5.146c0,0.111,0.023,0.23,0.058,0.354
				C506.275,113.033,507,114.189,509,114.676z M511.984,106.102c0.01,0.092,0.014,0.178,0.014,0.248
				C511.998,106.256,511.989,106.184,511.984,106.102z"/>
		</g>
		<g>
			<g>
				<path fill="#5B99F9" stroke="#1E3251" stroke-width="2" stroke-linejoin="round" stroke-miterlimit="10" d="M508.511,119H503v21
					h4.529c2.683,0,3.471-5.17,3.471-7.322v-13.242C511,118.912,509.79,119,508.511,119z"/>
			</g>
			<path fill="#1E3251" stroke="#1E3251" stroke-miterlimit="10" d="M511.5,108.496c0,1.34-2.012,3.004-3.9,3.004h-0.203
				c-1.889,0-2.896-1.664-2.896-3.004v-5.146c0-1.34,1.008-1.85,2.896-1.85h0.203c1.889,0,3.9,0.51,3.9,1.85V108.496z"/>
			
				<line fill="#4D678F" stroke="#1E3251" stroke-width="2" stroke-linejoin="round" stroke-miterlimit="10" x1="508" y1="104" x2="508" y2="118"/>
		</g>
	</g>
</g>
<g id="Text" display="none">
</g>
</svg>
