<?xml version="1.0" encoding="utf-8"?>
<!-- Generator: Adobe Illustrator 16.0.0, SVG Export Plug-In . SVG Version: 6.00 Build 0)  -->
<!DOCTYPE svg PUBLIC "-//W3C//DTD SVG 1.1//EN" "http://www.w3.org/Graphics/SVG/1.1/DTD/svg11.dtd">
<svg version="1.1" id="Layer_1" xmlns="http://www.w3.org/2000/svg" xmlns:xlink="http://www.w3.org/1999/xlink" x="0px" y="0px"
	 width="557px" height="279px" viewBox="0 0 557 279" enable-background="new 0 0 557 279" xml:space="preserve">
<path opacity="0.4" fill="#5D7DAD" d="M506.055,257.721c0-7.728-110.176-2.356-237.125-2.356c-126.95,0-214.646-3.288-214.38,3.778
	c0.035,0.953-1.63,2.775,22.159,3.517c-0.278,0.369-0.425,0.753-0.425,1.146c0,3.14,9.351,5.685,20.886,5.685
	c11.535,0,20.886-2.545,20.886-5.685c0-0.059-0.01-0.116-0.017-0.175c11.119,0.198,23.177,0.374,36.021,0.527
	c0.668,2.975,9.741,5.332,20.842,5.332c10.617,0,19.677-3.286,21.003-6.077c23.029,0.159,47.777,0,73.414,0
	c70.516,0,133.211,0.724,175.375-0.301c-0.102,0.228-0.16,0.458-0.16,0.693c0,3.14,9.35,5.685,20.885,5.685
	c11.537,0,20.887-2.545,20.887-5.685c0-0.744-0.533-1.455-1.492-2.107C493.855,261.191,506.055,261.188,506.055,257.721z"/>
<path fill="#5B99F9" stroke="#28436C" stroke-width="5" stroke-miterlimit="10" d="M535.259,29.736
	c-1.373-8.047-6.856-13.236-15.53-13.236H34.356c-8.673,0-20.856,2.096-20.856,10.769v8.245V235.5h48.735
	c0.106-19,15.09-33.37,33.561-33.37c18.472,0,33.456,14.37,33.562,33.37h12.18c0.106-19,15.09-33.37,33.562-33.37
	c18.471,0,33.455,14.37,33.562,33.37h223.393c0.107-19,15.09-33.37,33.562-33.37c18.471,0,33.455,14.37,33.562,33.37h42.32v-45.306
	V96.758L535.259,29.736z"/>
<g>
	<path fill="#9DC2FB" d="M527.254,36.199c0,0-0.17-4.615-2.961-8.087c-3.494-4.345-11.1-4.126-11.1-4.126L429.34,24h-68.312h-68.311
		h-68.309h-68.312H87.785H17.694c0,0-0.694,0.946-0.694,3.269C17,29.004,17,81,17,81h70.785h68.311h68.312h68.309h68.311h68.312
		h103.178L527.254,36.199z"/>
</g>
<path fill="#FFEA9C" d="M475.548,175.51c-48.467,2.607-63.681,22.454-121.896,27.264c-0.395-12.581-10.345-22.662-22.985-22.662
	c-12.818,0-23.051,10.378-23.166,23.204C241.808,198.379,167.84,131,115.99,81L16,81.054V233h43.958
	c0.106-19,17.332-33.375,35.838-33.375c18.507,0,34.537,13.375,36.037,33.375h7.333c1.167-20,17.427-33.454,35.933-33.454
	c18.507,0,34.859,13.454,35.984,33.454h218.375c1.438-19,16.367-33.312,34.875-33.312c18.506,0,35.5,11.312,37.25,33.312H539
	v-46.685C539,186.315,534.196,172.354,475.548,175.51z"/>
<path fill="none" stroke="#28436C" stroke-width="2" stroke-miterlimit="10" d="M542.334,186.554c0,0-9.012-14.2-67.66-11.044
	c-48.469,2.607-63.742,22.454-121.959,27.264c-0.393-12.581-10.375-22.662-23.016-22.662c-12.818,0-23.068,10.378-23.182,23.204
	c-65.693-4.937-137.792-71.851-189.643-121.851"/>
<g>
	<circle fill="#53688A" stroke="#28436C" stroke-width="4" stroke-miterlimit="10" cx="175.1" cy="235.146" r="27.285"/>
	<circle fill="#7E8EA7" stroke="#28436C" stroke-width="2" stroke-miterlimit="10" cx="175.1" cy="235.146" r="14.119"/>
	<g>
		<g>
			<path fill="#28436C" d="M180.79,228.011c0.341-0.431,0.837-0.667,1.391-0.635c0.562,0.012,1.154,0.321,1.592,0.853
				c0.205,0.275,0.364,0.567,0.444,0.866c0.072,0.305,0.084,0.604,0.04,0.874c-0.093,0.547-0.452,0.988-0.936,1.219
				c-0.496,0.236-1.014,0.243-1.483,0.151c-0.237-0.046-0.454-0.125-0.637-0.238c-0.192-0.109-0.371-0.238-0.5-0.419
				c-0.284-0.338-0.388-0.785-0.393-1.252C180.321,228.951,180.458,228.432,180.79,228.011z"/>
		</g>
		<g>
			<path fill="#28436C" d="M173.069,226.248c-0.124-0.531,0-1.076,0.371-1.483c0.362-0.435,0.971-0.694,1.66-0.717
				c0.688,0.022,1.297,0.282,1.66,0.717c0.371,0.407,0.495,0.952,0.371,1.483c-0.122,0.525-0.441,0.947-0.807,1.262
				c-0.367,0.286-0.781,0.492-1.224,0.469c-0.443,0.023-0.856-0.183-1.223-0.469C173.51,227.195,173.19,226.773,173.069,226.248z"/>
		</g>
		<g>
			<path fill="#28436C" d="M166.879,231.188c-0.483-0.23-0.843-0.672-0.936-1.219c-0.045-0.27-0.032-0.569,0.039-0.874
				c0.08-0.299,0.24-0.591,0.444-0.866c0.438-0.531,1.029-0.841,1.592-0.853c0.554-0.032,1.05,0.204,1.39,0.635
				c0.333,0.421,0.469,0.94,0.482,1.419c-0.004,0.467-0.108,0.914-0.393,1.252c-0.128,0.181-0.308,0.31-0.5,0.419
				c-0.183,0.113-0.399,0.192-0.637,0.238C167.893,231.431,167.375,231.424,166.879,231.188z"/>
		</g>
		<g>
			<path fill="#28436C" d="M166.879,239.104c-0.481,0.235-1.05,0.241-1.536-0.026c-0.486-0.264-0.909-0.789-1.059-1.465
				c-0.141-0.675-0.022-1.331,0.326-1.778c0.333-0.451,0.814-0.691,1.357-0.688c0.542,0.002,1.046,0.22,1.417,0.509
				c0.356,0.296,0.648,0.655,0.734,1.086c0.095,0.432,0.019,0.868-0.197,1.297C167.702,238.463,167.373,238.864,166.879,239.104z"/>
		</g>
		<g>
			<path fill="#28436C" d="M173.069,244.044c-0.118,0.53-0.461,0.951-0.979,1.183c-0.502,0.205-1.189,0.229-1.803-0.09
				c-0.631-0.281-1.041-0.832-1.192-1.354c-0.142-0.548-0.026-1.078,0.314-1.5s0.822-0.678,1.274-0.781
				c0.47-0.123,0.906-0.079,1.312,0.096c0.389,0.208,0.694,0.52,0.889,0.967C173.084,242.979,173.186,243.515,173.069,244.044z"/>
		</g>
		<g>
			<path fill="#28436C" d="M180.79,242.282c0.341,0.422,0.456,0.952,0.314,1.5c-0.15,0.522-0.56,1.073-1.191,1.354
				c-0.614,0.318-1.302,0.295-1.803,0.09c-0.519-0.231-0.861-0.652-0.979-1.183c-0.118-0.529-0.016-1.065,0.185-1.48
				c0.195-0.447,0.5-0.759,0.89-0.967c0.405-0.175,0.841-0.219,1.311-0.096C179.967,241.604,180.45,241.86,180.79,242.282z"/>
		</g>
		<g>
			<path fill="#28436C" d="M184.232,235.146c0.542-0.003,1.024,0.237,1.357,0.688c0.348,0.447,0.467,1.104,0.326,1.778
				c-0.149,0.676-0.573,1.201-1.058,1.465c-0.487,0.268-1.055,0.262-1.537,0.026c-0.493-0.24-0.823-0.642-1.042-1.066
				c-0.215-0.429-0.292-0.865-0.196-1.297c0.085-0.431,0.377-0.79,0.733-1.086C183.186,235.366,183.69,235.148,184.232,235.146z"/>
		</g>
	</g>
</g>
<polygon fill="#FFEA9C" stroke="#28436C" stroke-width="5" stroke-miterlimit="10" points="550.5,228.559 542.5,230.631 
	542.5,207.468 550.5,209.824 "/>
<g>
	<path fill="#9DC2FB" stroke="#28436C" stroke-width="2" stroke-miterlimit="10" d="M535.693,99c-3.469,0-7.693,1.281-7.693,4.75
		v58.104c0,3.469,4.225,8.146,7.693,8.146H540V99H535.693z"/>
</g>
<path fill="#7CAEFA" d="M527.057,31.515c0,0-150.23,0.293-211.801,0.414c-50.238,0.099-189.311-0.267-243.211-1.519
	c-3.917-0.09-34.646-1.999-43.283,10.073C22.598,49.097,21.784,72,21.008,81H16V29v-1.667C16,25.38,16.615,26,16.615,26h497.389
	c0,0,7.146-1.117,10.109,1.812C528.301,31.951,527.057,31.515,527.057,31.515z"/>
<g>
	<g>
		<polygon fill="#9DC2FB" points="421.629,111 353.316,111 285.006,111 216.697,111 148.385,111 80,111 80,170 148.385,170 
			216.697,170 285.006,170 353.316,170 421.629,170 514,170 514,111 		"/>
	</g>
	<path fill="#7CAEFA" d="M83.833,171H81v-58h65.814l367.465-0.739l-0.361,4.276c0,0-356.486-0.976-373.18-0.802
		c-32.839,0.343-47.895-0.545-52.654,4.443C83.744,124.727,83.833,171,83.833,171z"/>
</g>
<g>
	<path fill="#5B99F9" d="M314,224v-7.969c2-1.105,3.181-4.002,3.181-7.133c0-0.804-0.075-2.523-0.058-4.135
		c0.018-1.433-0.016-2.783-0.016-3.341c0-7.06,5.352-12.594,12.226-12.627l0.04,0.008l0.122-0.009c6.855,0,12.26,5.547,12.26,12.627
		c0,0.558,0.015,1.908,0.03,3.342c0.02,1.612-0.057,3.331-0.057,4.135c0,3.13,1.271,6.028,3.271,7.133V224H314z"/>
	<g>
		<path fill="#28436C" d="M329.521,189.795c6.304,0.042,11.23,5.134,11.23,11.626c0,0.56,0.016,1.915,0.032,3.353
			c0.019,1.608-0.057,3.322-0.057,4.124c0,3.264,1.272,6.232,3.272,7.68V223h-14.594H315v-6.422c2-1.447,3.181-4.416,3.181-7.68
			c0-0.802-0.075-2.516-0.058-4.124c0.018-1.438-0.016-2.792-0.016-3.353c0-6.492,4.903-11.584,11.207-11.626l0.104,0.009
			L329.521,189.795 M329.441,187.795c-0.021,0-0.023,0.002-0.035,0.003c-0.012-0.001-0.014-0.003-0.035-0.003
			c-7.525,0-13.311,6.101-13.311,13.627c0,1.186,0.12,5.958,0.12,7.477c0,3.238-2.181,5.912-3.181,6.487V225h16.406H346v-9.614
			c-2-0.575-3.272-3.249-3.272-6.487c0-1.519-0.022-6.291-0.022-7.477C342.705,193.896,336.967,187.795,329.441,187.795
			L329.441,187.795z"/>
	</g>
</g>
<line fill="#4D678F" stroke="#28436C" stroke-width="2" stroke-linejoin="round" stroke-miterlimit="10" x1="508" y1="105" x2="508" y2="119"/>
<g>
	<path fill="#5B99F9" stroke="#28436C" stroke-width="2" stroke-linejoin="round" stroke-miterlimit="10" d="M509.846,120H503v21
		h5.865c2.682,0,2.135-5.593,2.135-7.744v-13.242C511,119.49,511.125,120,509.846,120z"/>
</g>
<g>
	<rect x="285" y="112" fill="none" stroke="#28436C" stroke-width="2" stroke-miterlimit="10" width="68" height="58"/>
	<rect x="353" y="112" fill="none" stroke="#28436C" stroke-width="2" stroke-miterlimit="10" width="69" height="58"/>
	<rect x="422" y="112" fill="none" stroke="#28436C" stroke-width="2" stroke-miterlimit="10" width="92" height="58"/>
	<rect x="148" y="112" fill="none" stroke="#28436C" stroke-width="2" stroke-miterlimit="10" width="68" height="58"/>
	<rect x="80" y="112" fill="none" stroke="#28436C" stroke-width="2" stroke-miterlimit="10" width="68" height="58"/>
	<rect x="216" y="112" fill="none" stroke="#28436C" stroke-width="2" stroke-miterlimit="10" width="69" height="58"/>
</g>
<g>
	<rect x="80" y="25" fill="none" stroke="#28436C" stroke-width="2" stroke-miterlimit="10" width="68" height="57"/>
	<rect x="148" y="25" fill="none" stroke="#28436C" stroke-width="2" stroke-miterlimit="10" width="68" height="57"/>
	<rect x="216" y="25" fill="none" stroke="#28436C" stroke-width="2" stroke-miterlimit="10" width="69" height="57"/>
	<rect x="285" y="25" fill="none" stroke="#28436C" stroke-width="2" stroke-miterlimit="10" width="68" height="57"/>
	<rect x="353" y="25" fill="none" stroke="#28436C" stroke-width="2" stroke-miterlimit="10" width="68" height="57"/>
	<path fill="none" stroke="#28436C" stroke-width="2" stroke-miterlimit="10" d="M421,24.5l91.042,0.125
		c0,0,7.866-0.161,11.136,2.265c4.256,3.158,4.899,9.848,4.899,9.848l4.235,44.728L421,81.5V24.5z"/>
	<path fill="none" stroke="#28436C" stroke-width="2" stroke-miterlimit="10" d="M13,82h67V25H15.198c0,0-2.198-0.054-2.198,2.269
		C13,29.004,13,82,13,82z"/>
</g>
<rect x="273" y="176" fill="none" stroke="#28436C" stroke-width="2" stroke-miterlimit="10" width="10" height="4"/>
<rect x="410" y="176" fill="none" stroke="#28436C" stroke-width="2" stroke-miterlimit="10" width="11" height="4"/>
<rect x="504" y="217" fill="none" stroke="#28436C" stroke-width="2" stroke-miterlimit="10" width="31" height="18"/>
<line fill="none" stroke="#28436C" stroke-width="2" stroke-miterlimit="10" x1="509" y1="230" x2="515" y2="230"/>
<line fill="none" stroke="#28436C" stroke-width="2" stroke-miterlimit="10" x1="524" y1="230" x2="530" y2="230"/>
<g>
	<circle fill="#53688A" stroke="#28436C" stroke-width="4" stroke-miterlimit="10" cx="95.796" cy="235.146" r="27.285"/>
	<circle fill="#7E8EA7" stroke="#28436C" stroke-width="2" stroke-miterlimit="10" cx="95.796" cy="235.146" r="14.119"/>
	<g>
		<g>
			<path fill="#28436C" d="M101.486,228.011c0.34-0.431,0.836-0.667,1.39-0.635c0.563,0.012,1.154,0.321,1.592,0.853
				c0.205,0.275,0.364,0.567,0.444,0.866c0.072,0.305,0.084,0.604,0.039,0.874c-0.092,0.547-0.452,0.988-0.935,1.219
				c-0.496,0.236-1.014,0.243-1.483,0.151c-0.237-0.046-0.454-0.125-0.637-0.238c-0.192-0.109-0.372-0.238-0.5-0.419
				c-0.284-0.338-0.388-0.785-0.393-1.252C101.018,228.951,101.154,228.432,101.486,228.011z"/>
		</g>
		<g>
			<path fill="#28436C" d="M93.765,226.248c-0.124-0.531,0-1.076,0.372-1.483c0.362-0.435,0.971-0.694,1.659-0.717
				c0.688,0.022,1.297,0.282,1.66,0.717c0.371,0.407,0.494,0.952,0.371,1.483c-0.123,0.525-0.441,0.947-0.808,1.262
				c-0.367,0.286-0.781,0.492-1.224,0.469c-0.443,0.023-0.856-0.183-1.223-0.469C94.207,227.195,93.887,226.773,93.765,226.248z"/>
		</g>
		<g>
			<path fill="#28436C" d="M87.576,231.188c-0.483-0.23-0.843-0.672-0.936-1.219c-0.045-0.27-0.032-0.569,0.039-0.874
				c0.081-0.299,0.24-0.591,0.445-0.866c0.437-0.531,1.029-0.841,1.592-0.853c0.554-0.032,1.05,0.204,1.39,0.635
				c0.332,0.421,0.469,0.94,0.482,1.419c-0.004,0.467-0.109,0.914-0.393,1.252c-0.129,0.181-0.308,0.31-0.5,0.419
				c-0.184,0.113-0.4,0.192-0.637,0.238C88.589,231.431,88.072,231.424,87.576,231.188z"/>
		</g>
		<g>
			<path fill="#28436C" d="M87.576,239.104c-0.482,0.235-1.05,0.241-1.537-0.026c-0.485-0.264-0.909-0.789-1.059-1.465
				c-0.141-0.675-0.021-1.331,0.326-1.778c0.333-0.451,0.814-0.691,1.357-0.688c0.542,0.002,1.046,0.22,1.417,0.509
				c0.356,0.296,0.648,0.655,0.733,1.086c0.095,0.432,0.019,0.868-0.196,1.297C88.399,238.463,88.069,238.864,87.576,239.104z"/>
		</g>
		<g>
			<path fill="#28436C" d="M93.765,244.044c-0.118,0.53-0.46,0.951-0.979,1.183c-0.502,0.205-1.19,0.229-1.803-0.09
				c-0.631-0.281-1.041-0.832-1.191-1.354c-0.142-0.548-0.027-1.078,0.314-1.5c0.34-0.422,0.822-0.678,1.274-0.781
				c0.471-0.123,0.906-0.079,1.312,0.096c0.389,0.208,0.694,0.52,0.89,0.967C93.781,242.979,93.883,243.515,93.765,244.044z"/>
		</g>
		<g>
			<path fill="#28436C" d="M101.486,242.282c0.341,0.422,0.456,0.952,0.314,1.5c-0.151,0.522-0.56,1.073-1.191,1.354
				c-0.614,0.318-1.301,0.295-1.803,0.09c-0.518-0.231-0.861-0.652-0.979-1.183c-0.118-0.529-0.016-1.065,0.184-1.48
				c0.195-0.447,0.5-0.759,0.89-0.967c0.406-0.175,0.841-0.219,1.311-0.096C100.664,241.604,101.146,241.86,101.486,242.282z"/>
		</g>
		<g>
			<path fill="#28436C" d="M104.928,235.146c0.543-0.003,1.024,0.237,1.357,0.688c0.348,0.447,0.467,1.104,0.326,1.778
				c-0.15,0.676-0.574,1.201-1.059,1.465c-0.486,0.268-1.055,0.262-1.536,0.026c-0.494-0.24-0.823-0.642-1.042-1.066
				c-0.216-0.429-0.292-0.865-0.197-1.297c0.085-0.431,0.378-0.79,0.734-1.086C103.882,235.366,104.386,235.148,104.928,235.146z"/>
		</g>
	</g>
</g>
<g>
	<circle fill="#53688A" stroke="#28436C" stroke-width="4" stroke-miterlimit="10" cx="465.617" cy="235.146" r="27.285"/>
	<circle fill="#7E8EA7" stroke="#28436C" stroke-width="2" stroke-miterlimit="10" cx="465.617" cy="235.146" r="14.119"/>
	<g>
		<g>
			<path fill="#28436C" d="M471.307,228.011c0.342-0.431,0.838-0.667,1.391-0.635c0.562,0.012,1.154,0.321,1.592,0.853
				c0.205,0.275,0.363,0.567,0.445,0.866c0.07,0.305,0.084,0.604,0.037,0.874c-0.092,0.547-0.451,0.988-0.936,1.219
				c-0.494,0.236-1.012,0.243-1.482,0.151c-0.236-0.046-0.453-0.125-0.637-0.238c-0.191-0.109-0.371-0.238-0.5-0.419
				c-0.283-0.338-0.389-0.785-0.393-1.252C470.84,228.951,470.975,228.432,471.307,228.011z"/>
		</g>
		<g>
			<path fill="#28436C" d="M463.586,226.248c-0.123-0.531,0-1.076,0.371-1.483c0.361-0.435,0.971-0.694,1.66-0.717
				c0.688,0.022,1.297,0.282,1.66,0.717c0.371,0.407,0.494,0.952,0.371,1.483c-0.123,0.525-0.441,0.947-0.809,1.262
				c-0.365,0.286-0.779,0.492-1.223,0.469c-0.443,0.023-0.857-0.183-1.225-0.469C464.027,227.195,463.707,226.773,463.586,226.248z"
				/>
		</g>
		<g>
			<path fill="#28436C" d="M457.396,231.188c-0.482-0.23-0.842-0.672-0.936-1.219c-0.045-0.27-0.031-0.569,0.039-0.874
				c0.08-0.299,0.24-0.591,0.445-0.866c0.436-0.531,1.029-0.841,1.592-0.853c0.553-0.032,1.049,0.204,1.391,0.635
				c0.33,0.421,0.467,0.94,0.48,1.419c-0.002,0.467-0.109,0.914-0.393,1.252c-0.129,0.181-0.307,0.31-0.5,0.419
				c-0.182,0.113-0.398,0.192-0.635,0.238C458.41,231.431,457.893,231.424,457.396,231.188z"/>
		</g>
		<g>
			<path fill="#28436C" d="M457.396,239.104c-0.48,0.235-1.049,0.241-1.537-0.026c-0.484-0.264-0.908-0.789-1.059-1.465
				c-0.141-0.675-0.021-1.331,0.326-1.778c0.334-0.451,0.814-0.691,1.357-0.688c0.543,0.002,1.045,0.22,1.418,0.509
				c0.355,0.296,0.648,0.655,0.732,1.086c0.094,0.432,0.02,0.868-0.195,1.297C458.219,238.463,457.891,238.864,457.396,239.104z"/>
		</g>
		<g>
			<path fill="#28436C" d="M463.586,244.044c-0.117,0.53-0.461,0.951-0.979,1.183c-0.502,0.205-1.189,0.229-1.803-0.09
				c-0.631-0.281-1.041-0.832-1.191-1.354c-0.143-0.548-0.027-1.078,0.314-1.5c0.338-0.422,0.822-0.678,1.273-0.781
				c0.471-0.123,0.906-0.079,1.311,0.096c0.389,0.208,0.695,0.52,0.889,0.967C463.602,242.979,463.703,243.515,463.586,244.044z"/>
		</g>
		<g>
			<path fill="#28436C" d="M471.307,242.282c0.342,0.422,0.457,0.952,0.314,1.5c-0.15,0.522-0.561,1.073-1.191,1.354
				c-0.613,0.318-1.301,0.295-1.803,0.09c-0.52-0.231-0.861-0.652-0.979-1.183c-0.119-0.529-0.016-1.065,0.184-1.48
				c0.195-0.447,0.5-0.759,0.891-0.967c0.404-0.175,0.84-0.219,1.311-0.096C470.484,241.604,470.967,241.86,471.307,242.282z"/>
		</g>
		<g>
			<path fill="#28436C" d="M474.75,235.146c0.541-0.003,1.023,0.237,1.357,0.688c0.348,0.447,0.467,1.104,0.324,1.778
				c-0.148,0.676-0.572,1.201-1.059,1.465c-0.486,0.268-1.055,0.262-1.537,0.026c-0.492-0.24-0.82-0.642-1.041-1.066
				c-0.215-0.429-0.291-0.865-0.195-1.297c0.084-0.431,0.377-0.79,0.732-1.086C473.703,235.366,474.207,235.148,474.75,235.146z"/>
		</g>
	</g>
</g>
<rect x="134" y="176" fill="none" stroke="#28436C" stroke-width="2" stroke-miterlimit="10" width="10" height="4"/>
<path fill="#28436C" stroke="#28436C" stroke-miterlimit="10" d="M511.5,109.073c0,1.34-0.676,3.427-2.564,3.427h-0.203
	c-1.889,0-4.232-2.087-4.232-3.427v-5.146c0-1.34,2.344-1.427,4.232-1.427h0.203c1.889,0,2.564,0.087,2.564,1.427V109.073z"/>
<g>
	<g>
		<g>
			<g>
				
					<line fill="none" stroke="#28436C" stroke-width="2" stroke-linejoin="round" stroke-miterlimit="10" x1="54.833" y1="124.602" x2="63.833" y2="124.602"/>
			</g>
			<g>
				
					<line fill="none" stroke="#28436C" stroke-width="2" stroke-linejoin="round" stroke-miterlimit="10" x1="54.833" y1="130.725" x2="63.833" y2="130.725"/>
			</g>
			<g>
				
					<line fill="none" stroke="#28436C" stroke-width="2" stroke-linejoin="round" stroke-miterlimit="10" x1="54.833" y1="136.847" x2="63.833" y2="136.847"/>
			</g>
			<g>
				
					<line fill="none" stroke="#28436C" stroke-width="2" stroke-linejoin="round" stroke-miterlimit="10" x1="54.833" y1="142.97" x2="63.833" y2="142.97"/>
			</g>
			<g>
				
					<line fill="none" stroke="#28436C" stroke-width="2" stroke-linejoin="round" stroke-miterlimit="10" x1="54.833" y1="149.093" x2="63.833" y2="149.093"/>
			</g>
			<g>
				
					<line fill="none" stroke="#28436C" stroke-width="2" stroke-linejoin="round" stroke-miterlimit="10" x1="54.833" y1="155.215" x2="63.833" y2="155.215"/>
			</g>
			<g>
				
					<line fill="none" stroke="#28436C" stroke-width="2" stroke-linejoin="round" stroke-miterlimit="10" x1="54.833" y1="161.338" x2="63.833" y2="161.338"/>
			</g>
			<g>
				
					<line fill="none" stroke="#28436C" stroke-width="2" stroke-linejoin="round" stroke-miterlimit="10" x1="54.833" y1="167.46" x2="63.833" y2="167.46"/>
			</g>
		</g>
	</g>
</g>
<g>
	<g>
		<g>
			<g>
				
					<line fill="none" stroke="#28436C" stroke-width="2" stroke-linejoin="round" stroke-miterlimit="10" x1="39.833" y1="124.602" x2="48.833" y2="124.602"/>
			</g>
			<g>
				
					<line fill="none" stroke="#28436C" stroke-width="2" stroke-linejoin="round" stroke-miterlimit="10" x1="39.833" y1="130.725" x2="48.833" y2="130.725"/>
			</g>
			<g>
				
					<line fill="none" stroke="#28436C" stroke-width="2" stroke-linejoin="round" stroke-miterlimit="10" x1="39.833" y1="136.847" x2="48.833" y2="136.847"/>
			</g>
			<g>
				
					<line fill="none" stroke="#28436C" stroke-width="2" stroke-linejoin="round" stroke-miterlimit="10" x1="39.833" y1="142.97" x2="48.833" y2="142.97"/>
			</g>
			<g>
				
					<line fill="none" stroke="#28436C" stroke-width="2" stroke-linejoin="round" stroke-miterlimit="10" x1="39.833" y1="149.093" x2="48.833" y2="149.093"/>
			</g>
			<g>
				
					<line fill="none" stroke="#28436C" stroke-width="2" stroke-linejoin="round" stroke-miterlimit="10" x1="39.833" y1="155.215" x2="48.833" y2="155.215"/>
			</g>
			<g>
				
					<line fill="none" stroke="#28436C" stroke-width="2" stroke-linejoin="round" stroke-miterlimit="10" x1="39.833" y1="161.338" x2="48.833" y2="161.338"/>
			</g>
			<g>
				
					<line fill="none" stroke="#28436C" stroke-width="2" stroke-linejoin="round" stroke-miterlimit="10" x1="39.833" y1="167.46" x2="48.833" y2="167.46"/>
			</g>
		</g>
	</g>
</g>
<g>
	<g>
		<g>
			<g>
				
					<line fill="none" stroke="#28436C" stroke-width="2" stroke-linejoin="round" stroke-miterlimit="10" x1="25.833" y1="124.602" x2="34.833" y2="124.602"/>
			</g>
			<g>
				
					<line fill="none" stroke="#28436C" stroke-width="2" stroke-linejoin="round" stroke-miterlimit="10" x1="25.833" y1="130.725" x2="34.833" y2="130.725"/>
			</g>
			<g>
				
					<line fill="none" stroke="#28436C" stroke-width="2" stroke-linejoin="round" stroke-miterlimit="10" x1="25.833" y1="136.847" x2="34.833" y2="136.847"/>
			</g>
			<g>
				
					<line fill="none" stroke="#28436C" stroke-width="2" stroke-linejoin="round" stroke-miterlimit="10" x1="25.833" y1="142.97" x2="34.833" y2="142.97"/>
			</g>
			<g>
				
					<line fill="none" stroke="#28436C" stroke-width="2" stroke-linejoin="round" stroke-miterlimit="10" x1="25.833" y1="149.093" x2="34.833" y2="149.093"/>
			</g>
			<g>
				
					<line fill="none" stroke="#28436C" stroke-width="2" stroke-linejoin="round" stroke-miterlimit="10" x1="25.833" y1="155.215" x2="34.833" y2="155.215"/>
			</g>
			<g>
				
					<line fill="none" stroke="#28436C" stroke-width="2" stroke-linejoin="round" stroke-miterlimit="10" x1="25.833" y1="161.338" x2="34.833" y2="161.338"/>
			</g>
			<g>
				
					<line fill="none" stroke="#28436C" stroke-width="2" stroke-linejoin="round" stroke-miterlimit="10" x1="25.833" y1="167.46" x2="34.833" y2="167.46"/>
			</g>
		</g>
	</g>
</g>
<g>
	<g>
		<g>
			<g>
				
					<line fill="none" stroke="#28436C" stroke-width="2" stroke-linejoin="round" stroke-miterlimit="10" x1="25.833" y1="204.511" x2="34.833" y2="204.511"/>
			</g>
			<g>
				
					<line fill="none" stroke="#28436C" stroke-width="2" stroke-linejoin="round" stroke-miterlimit="10" x1="25.833" y1="210.524" x2="34.833" y2="210.524"/>
			</g>
			<g>
				
					<line fill="none" stroke="#28436C" stroke-width="2" stroke-linejoin="round" stroke-miterlimit="10" x1="25.833" y1="216.538" x2="34.833" y2="216.538"/>
			</g>
			<g>
				
					<line fill="none" stroke="#28436C" stroke-width="2" stroke-linejoin="round" stroke-miterlimit="10" x1="25.833" y1="222.551" x2="34.833" y2="222.551"/>
			</g>
		</g>
	</g>
</g>
<g>
	<g>
		<g>
			<g>
				
					<line fill="none" stroke="#28436C" stroke-width="2" stroke-linejoin="round" stroke-miterlimit="10" x1="39.833" y1="204.511" x2="48.833" y2="204.511"/>
			</g>
			<g>
				
					<line fill="none" stroke="#28436C" stroke-width="2" stroke-linejoin="round" stroke-miterlimit="10" x1="39.833" y1="210.524" x2="48.833" y2="210.524"/>
			</g>
			<g>
				
					<line fill="none" stroke="#28436C" stroke-width="2" stroke-linejoin="round" stroke-miterlimit="10" x1="39.833" y1="216.538" x2="48.833" y2="216.538"/>
			</g>
			<g>
				
					<line fill="none" stroke="#28436C" stroke-width="2" stroke-linejoin="round" stroke-miterlimit="10" x1="39.833" y1="222.551" x2="48.833" y2="222.551"/>
			</g>
		</g>
	</g>
</g>
</svg>
