<?xml version="1.0" encoding="utf-8"?>
<!-- Generator: Adobe Illustrator 16.0.0, SVG Export Plug-In . SVG Version: 6.00 Build 0)  -->
<!DOCTYPE svg PUBLIC "-//W3C//DTD SVG 1.1//EN" "http://www.w3.org/Graphics/SVG/1.1/DTD/svg11.dtd">
<svg version="1.1" xmlns="http://www.w3.org/2000/svg" xmlns:xlink="http://www.w3.org/1999/xlink" x="0px" y="0px" width="1152px"
	 height="500px" viewBox="0 0 1152 500" enable-background="new 0 0 1152 500" xml:space="preserve">
<g id="Background">
	<rect x="-25.091" y="-3.667" fill="#DAE3F1" width="1214.516" height="386.671"/>
	<g>
		<path fill="#8FAAD5" d="M-116.287,383.999L0.951,313.913c4.133-2.754,8.211-5.487,12.207-8.37
			c8.512-6.141,17.284-11.226,25.768-16.144c7.919-4.591,16.107-9.338,24.062-14.932c14.805-10.411,29.646-20.316,48.385-27.088
			c5.839-2.111,12.271-3.501,18.492-4.846c6.46-1.396,13.14-2.84,19.151-5.09c6.408-2.4,12.316-6.262,18.031-9.997
			c6.201-4.053,12.614-8.245,19.716-10.611c2.302-0.767,4.737-1.156,7.239-1.156c8.568,0,16.968,4.499,24.38,8.468
			c1.195,0.64,2.371,1.27,3.525,1.87l2.354,1.224c10.427,5.425,21.209,11.034,32.466,14.941c4.92,1.708,10.041,3.108,14.993,4.462
			c8.028,2.195,16.33,4.465,24.079,8.12c7.139,3.368,13.757,7.791,20.157,12.068c5.643,3.771,11.478,7.671,17.609,10.799
			c3.663,1.869,7.4,3.582,11.014,5.238c7.467,3.422,15.188,6.96,22.34,11.954c11.043,7.715,21.132,14.47,32.777,19.016l0.116,0.046
			l0.102,0.072c0.324,0.231,32.698,23.317,54.467,34.146c21.799,10.844,82.2,33.899,82.808,34.131l5.078,1.936L-116.287,383.999z"/>
		<path fill="#1E3251" d="M194.002,216.68c9.66,0,19.116,5.899,27.444,10.225c11.397,5.918,22.791,12.001,34.954,16.222
			c12.918,4.484,26.536,6.675,38.973,12.542c13.362,6.305,24.602,16.151,37.738,22.854c11.301,5.768,22.738,9.791,33.236,17.122
			c10.759,7.516,20.986,14.442,32.986,19.127c0,0,32.508,23.237,54.604,34.229s82.896,34.17,82.896,34.17l-649.5-0.17L1.464,314.771
			c4.133-2.752,8.251-5.512,12.278-8.418c16.407-11.835,33.3-19.451,49.82-31.067c15.694-11.036,30.18-20.473,48.15-26.966
			c11.82-4.273,25.764-5.489,37.654-9.94c13.49-5.052,24.22-16.101,37.712-20.595C189.39,217.015,191.702,216.68,194.002,216.68
			 M194.002,214.68c-2.609,0-5.151,0.406-7.556,1.207c-7.225,2.407-13.692,6.634-19.947,10.723
			c-5.668,3.705-11.53,7.536-17.834,9.897c-5.942,2.225-12.586,3.661-19.011,5.05c-6.252,1.351-12.718,2.749-18.621,4.883
			c-18.855,6.813-33.757,16.759-48.62,27.211c-7.919,5.568-16.088,10.304-23.989,14.884c-8.505,4.931-17.299,10.028-25.851,16.197
			c-3.969,2.864-8.024,5.583-12.175,8.348l-114.09,68.204l-6.214,3.715l7.24,0.002l649.5,0.17l10.868,0.003l-10.155-3.872
			c-0.607-0.231-60.963-23.27-82.719-34.092c-21.701-10.795-54.007-33.833-54.331-34.064l-0.203-0.146l-0.232-0.091
			c-11.542-4.506-21.578-11.227-32.568-18.903c-7.227-5.046-14.989-8.604-22.497-12.044c-3.604-1.652-7.332-3.36-10.976-5.22
			c-6.08-3.102-11.889-6.984-17.508-10.739c-6.431-4.298-13.08-8.741-20.286-12.142c-7.828-3.692-16.172-5.974-24.242-8.18
			c-4.936-1.35-10.041-2.745-14.928-4.442c-11.188-3.883-21.938-9.475-32.333-14.883l-2.355-1.224
			c-1.15-0.598-2.323-1.226-3.514-1.863C211.339,219.242,202.822,214.68,194.002,214.68L194.002,214.68z"/>
	</g>
	<path fill="none" d="M123.065,376.076c-0.958-1.718-7.242-3.137-9.293-4.163c-2.235-1.114-4.112-1.751-5.595-3.876
		c-2.208-3.167-2.338-7.878-0.767-11.174c2.803-5.879,8.333-10.376,11.744-15.952c1.169-1.91,2.067-4.058,3.295-5.95
		c6.539-10.063,15.607-9.912,25.875-13.958c5.476-2.156,10.927-7.568,14.925-11.74c2.104-2.195,6.372-8.506,5.822-11.53
		c-0.52-2.857-4.999-6.18-7.133-7.872c-2.031-1.612-3.657-2.737-5.038-4.887c-1.515-2.355-2.482-5.195-3.425-7.706
		c-1.556-4.146-2.226-7.535,0.069-11.223c2.215-3.562,4.75-6.476,8.603-8.275c8.891-4.153,20.232-7.569,24.035-17.896
		c1.468-3.984,1.527-9.018,1.827-13.313c0.222-3.182-0.239-6.886,1.042-9.866c-9.447,0.241-18.679,5.978-26.831,10.212
		c-11.397,5.918-22.791,12.001-34.954,16.222c-12.918,4.484-26.536,6.675-38.973,12.542c-13.362,6.305-24.602,16.151-37.738,22.854
		c-11.301,5.768-22.738,9.791-33.236,17.122C6.56,303.16-3.667,310.087-15.667,314.771V383h137.378
		C122.889,380.444,123.871,377.521,123.065,376.076z"/>
	<path fill="#B4C7E3" d="M-101.33,376.223L1.464,314.771c4.133-2.752,8.251-5.512,12.278-8.418
		c16.407-11.835,33.3-19.451,49.82-31.067c15.694-11.036,30.18-20.473,48.15-26.966c11.82-4.273,25.764-5.489,37.654-9.94
		c13.49-5.052,24.22-16.101,37.712-20.595c2.517-0.838,5.034-1.155,7.536-1.091c1.281,2.98,0.82,6.685,1.042,9.866
		c0.3,4.295,0.359,9.329,1.827,13.313c3.803,10.327,25.849,10.127,32.638,26.172c7.819,18.48-16.164,29.955-9.705,43.218
		c8.282,17.005,36.749,19.904,47.916,35.737c14.621,20.731,7.561,33.166,12.186,40.5c2.514,3.985,0.744,0.729-0.214,2.446
		c-0.806,1.445-5.149,3.498-3.971,6.054l-379.488-11L-101.33,376.223z"/>
	<g>
		<g>
			<path fill="#B4C7E3" d="M741.94,383.274l1.997-1.692c2.442-2.071,5.299-3.488,8.062-4.858c2.232-1.107,4.541-2.252,6.552-3.718
				c3.538-2.581,7.217-5.067,10.774-7.473c2.099-1.418,4.199-2.838,6.286-4.285c11.077-7.679,23.23-13.301,36.123-16.712
				c1.865-0.493,3.729-0.958,5.588-1.421c5.586-1.392,11.363-2.831,16.852-5.038c5.878-2.363,11.535-5.801,17.006-9.125
				c3.418-2.077,6.953-4.225,10.509-6.091c18.58-9.743,38.396-20.621,57.424-34.125c4.052-2.875,8.312-5.206,12.432-7.461
				c3.435-1.88,6.986-3.823,10.381-6.064c2.534-1.675,5.656-3.663,8.962-5.768c8.584-5.466,20.34-12.951,21.679-15.173
				c1.428-2.841,4.353-4.646,7.599-4.646c0.977,0,1.96,0.179,2.923,0.533c0.729,0.201,1.513,0.57,2.261,1.076
				c1.162,0.509,2.395,0.767,3.664,0.767c2.923,0,5.693-1.408,7.411-3.767c1.635-2.241,4.146-3.527,6.893-3.527
				c1.865,0,3.534,0.582,5.252,1.832c1.718,1.272,3.703,1.942,5.748,1.942c2.398,0,4.637-0.933,6.302-2.625
				c1.691-1.674,3.767-2.554,6.011-2.554c4.043,0,7.526,2.839,8.33,6.768l0.086,0.192c5.712,12.56,17.834,21.196,28.53,28.815
				c3.763,2.68,7.316,5.212,10.51,7.824c7.026,5.749,14.466,13.087,21.029,19.562c6.783,6.689,13.189,13.009,17.781,16.239
				c8.089,5.691,46.663,21.806,73.561,29.876c7.06,2.117,15.402,3.586,24.235,5.14c14.219,2.502,28.922,5.089,39.435,10.699
				c8.398,4.482,12.01,10.248,15.196,15.335c3.131,4.998,5.835,9.314,12.335,11.847l5.351,2.084L741.94,383.274z"/>
			<path fill="#1E3251" d="M1026.627,244.299c3.682,0,6.711,2.595,7.371,6.072c0.047,0.1,0.088,0.201,0.139,0.31
				c7.788,17.126,26.784,26.74,39.313,36.991c14.252,11.66,29.722,29.41,38.868,35.845c8.427,5.929,47.938,22.241,73.849,30.016
				c18.6,5.579,46.688,6.799,63.486,15.763c16.18,8.636,13.897,21.879,27.639,27.231l-532.709-14.183
				c4.316-3.659,9.992-5.204,14.556-8.531c5.573-4.065,11.355-7.8,17.042-11.744c10.833-7.509,22.997-13.177,35.809-16.566
				c7.615-2.015,15.209-3.543,22.557-6.498c9.648-3.88,18.393-10.423,27.606-15.258c20.035-10.507,39.048-21.073,57.538-34.195
				c7.374-5.233,15.283-8.553,22.784-13.507c9.886-6.531,28.984-18.004,30.946-21.258c1.242-2.467,3.79-4.163,6.742-4.163
				c0.909,0,1.772,0.176,2.578,0.472c0.774,0.217,1.475,0.57,2.117,1.014c1.336,0.6,2.75,0.89,4.152,0.89
				c3.155,0,6.246-1.469,8.22-4.178c1.374-1.885,3.573-3.116,6.084-3.116c1.779,0,3.259,0.618,4.664,1.641
				c1.93,1.43,4.154,2.133,6.336,2.133c2.585,0,5.11-0.987,7.015-2.924C1022.735,245.164,1024.52,244.299,1026.627,244.299
				 M1026.627,242.299c-2.514,0-4.832,0.98-6.705,2.834c-1.494,1.52-3.479,2.346-5.607,2.346c-1.829,0-3.608-0.602-5.146-1.74
				c-1.885-1.372-3.796-2.034-5.854-2.034c-3.069,0-5.876,1.435-7.7,3.938c-1.531,2.102-3.999,3.356-6.604,3.356
				c-1.102,0-2.172-0.218-3.184-0.649c-0.79-0.522-1.619-0.911-2.469-1.158c-1.051-0.377-2.125-0.568-3.195-0.568
				c-3.593,0-6.835,1.981-8.484,5.177c-1.376,2.093-13.854,10.038-21.331,14.799c-3.309,2.107-6.435,4.098-8.976,5.776
				c-3.359,2.219-6.893,4.152-10.31,6.022c-4.146,2.269-8.431,4.613-12.529,7.522c-18.98,13.47-38.762,24.328-57.31,34.055
				c-3.584,1.881-7.133,4.037-10.564,6.122c-5.437,3.303-11.058,6.719-16.859,9.052c-5.425,2.182-10.911,3.549-16.721,4.995
				c-1.832,0.457-3.728,0.929-5.602,1.425c-13.005,3.44-25.264,9.112-36.437,16.856c-2.081,1.443-4.215,2.886-6.277,4.279
				c-3.564,2.41-7.251,4.901-10.804,7.492c-1.941,1.416-4.11,2.492-6.406,3.631c-2.816,1.397-5.729,2.842-8.264,4.991l-3.994,3.386
				l5.234,0.139l532.709,14.183l11.48,0.306l-10.702-4.168c-6.19-2.412-8.813-6.599-11.85-11.446
				c-3.253-5.192-6.939-11.078-15.573-15.687c-10.652-5.685-25.436-8.285-39.732-10.801c-8.803-1.549-17.117-3.013-24.121-5.113
				c-26.103-7.832-65.338-24.153-73.271-29.735c-4.525-3.184-10.902-9.474-17.654-16.134c-6.58-6.49-14.036-13.845-21.099-19.623
				c-3.22-2.634-6.787-5.176-10.563-7.866c-10.593-7.546-22.6-16.099-28.196-28.405l-0.043-0.098
				C1034.973,245.42,1031.107,242.299,1026.627,242.299L1026.627,242.299z"/>
		</g>
		<path fill="#8FAAD5" d="M1249.654,369.296c-16.798-8.964-44.887-10.184-63.486-15.763c-25.911-7.774-65.422-24.087-73.849-30.016
			c-9.146-6.435-24.616-24.185-38.868-35.845c-12.529-10.251-31.525-19.865-39.313-36.991c-0.051-0.109-0.092-0.21-0.139-0.31
			c-0.66-3.478-3.689-6.072-7.371-6.072c-2.107,0-3.893,0.864-5.298,2.255c-0.094,0.096-1.775,1.355-1.872,1.447
			c-1.468,4.686-0.997,5.282-2.187,6.811c-1.926,2.478-4.117,3.224-6.291,5.832c-2.027,2.432-3.253,5.271-5.755,7.311
			c-2.468,2.012-7.223,3.083-8.258,6.329c5.578,1.098,8.825,3.468,12.509,7.632c3.668,4.145,7.011,5.314,11.851,7.784
			c14.267,7.281-8.536,13.104-13.771,17.9c-4.223,3.869-8.718,7.142-13.058,10.842c-4.482,3.822-5.87,8.409-7.582,13.863
			c-3.541,11.271-6.708,21.733-7.32,33.668c-0.412,7.997,1.157,15.427,3.487,22.721l294.21,7.833
			C1263.551,391.175,1265.833,377.932,1249.654,369.296z"/>
	</g>
	<g>
		<path fill="#FFFFFF" stroke="#1E3251" stroke-width="2" stroke-miterlimit="10" d="M332.333,117.023v-0.077l-12.323,0.189
			c3.412-5.32,6.29-11.628,6.29-18.417c0-13.23-7.09-24.681-18.085-30.363c0.175-1.402,0.515-2.822,0.515-4.274
			c0-18.876-15.192-34.179-34.071-34.179c-18.876,0-34.125,15.302-34.125,34.179c0,7.114,2.202,13.715,5.92,19.187
			c-0.294-0.01-0.568-0.045-0.866-0.045c-0.674,0-1.339,0.034-2.004,0.085c-0.559-0.039-1.113-0.085-1.681-0.085
			c-13.427,0-24.311,10.885-24.311,24.312c0,3.822,0.908,7.423,2.478,10.641c-17.22,0.101-35.095-0.184-44.149-0.16
			c-0.015,0-0.03-0.005-0.045-0.005c-1.994,0-3.829,0.642-5.341,1.714c-0.897,0.602-1.12,0.882-1.445,1.25
			c-0.006,0.006,0.005,0.019,0.005,0.027c-1.531,1.654-2.486,3.846-2.486,6.276c0,4.977,3.931,9.004,8.853,9.225l160.376,0.497
			c5.515,0,8.236-4.472,8.236-9.987C344.074,121.496,339.333,117.023,332.333,117.023z"/>
		<g>
			<path fill="#F2F2F2" d="M307.146,68.922c-4.064,12.883-15.508,22.069-29.6,22.615c0.428,0.017,11.526,2.967,20.454-4.203
				c5.036-4.045,10.957-13.567,10.928-17.396L307.146,68.922z"/>
		</g>
	</g>
	<path fill="#FFFFFF" stroke="#1E3251" stroke-width="2" stroke-miterlimit="10" d="M132.864,181.062
		c0.696-1.525,1.095-3.214,1.095-5c0-6.662-5.4-12.062-12.062-12.062c-4.108,0-7.73,2.057-9.909,5.193
		c-0.68-0.119-1.376,0.057-2.091,0.057c-6.641,0-11.736,4.812-11.771,11.812l-10.292-0.041c0-0.008-0.04-0.022-0.188-0.022
		c-4.522,0-8.062,3.978-8.062,8.5s3.791,8.5,8.312,8.5c0.855,0,43.145,0,44,0c4.522,0,8.188-3.978,8.188-8.5
		C140.083,185.306,136.929,181.542,132.864,181.062z"/>
	<g>
		<path fill="#F1F1F1" d="M118.091,188.207c-0.437,0.432-2.126,1.314-2.271-0.455c3.98-3.198,5.219-8.877,2.671-13.504
			c-1.094-1.986-0.089-2.002,1.206,0.35C122.274,179.276,122.179,185.032,118.091,188.207z"/>
	</g>
	<g>
		<path fill="#FFFFFF" d="M1041.432,79.054c-0.016,0-0.099,0.003-0.099,0.003V79h-5.598c3.359-5,5.32-10.979,5.32-17.443
			c0-17.275-14.006-31.275-31.281-31.275c-15.471,0-28.309,11.234-30.826,25.986c-2.086-0.535-4.273-0.832-6.525-0.832
			c-13.578,0-24.74,10.564-26.047,23.564h-37.043v0.027c0,0,0.022-0.003,0.009-0.003c-7.703,0-13.925,6.285-13.925,13.988
			S901.695,107,909.398,107c0.014,0-0.457,0-0.457,0l0,0h132.393v-0.082c0,0,0.083,0.002,0.099,0.002
			c7.695,0,13.934-6.237,13.934-13.934C1055.366,85.291,1049.127,79.054,1041.432,79.054z"/>
		<g>
			<path fill="#F1F1F1" d="M999.315,74.536c-1.606-8.411-8.69-18.081-19.21-20.14l-2.073,1.6
				c9.125,2.211,16.433,9.659,18.651,19.437c1.446,6.378,0.659,10.365-2.287,15.665C997.583,88.25,1001.31,84.981,999.315,74.536z"
				/>
		</g>
		<path fill="none" stroke="#1E3251" stroke-width="2" stroke-miterlimit="10" d="M1040.932,78.054
			c-0.016,0-0.599,0.003-0.599,0.003L1035.736,78c3.359-5,5.32-10.479,5.32-16.943c0-17.275-14.006-31.525-31.281-31.525
			c-15.471,0-28.309,11.109-30.826,25.861c-2.086-0.535-4.273-0.395-6.525-0.395c-13.578,0-24.74,10.002-26.047,23.002
			c0,0-37.521,0.024-37.534,0.024c-7.703,0-13.675,6.785-13.675,14.488S901.695,107,909.398,107c0.014,0-0.457,0-0.457,0l0,0
			h131.393c0,0-0.016,0,0,0c7.695,0,14.532-7.317,14.532-15.014C1054.866,84.291,1048.627,78.054,1040.932,78.054z"/>
	</g>
	<g>
		<path fill="#FFFFFF" d="M1069.214,187.053c-1.877-2.175-4.648-3.558-7.748-3.558c-5.654,0-10.238,4.584-10.238,10.238
			c0,3.1,1.383,5.872,3.559,7.75c1.794,1.547,4.125,2.489,6.68,2.489c5.654,0,10.239-4.584,10.239-10.239
			C1071.706,191.178,1070.763,188.848,1069.214,187.053z"/>
		<path fill="#FFFFFF" d="M1069.835,194.268c-0.09,0-29.114,0.014-29.114,0.014c-3.366,0.141-6.055,2.958-6.055,6.359
			s2.688,6.359,6.055,6.359c0,0,29.024-0.038,29.114-0.038c3.491,0,6.322-2.855,6.322-6.347S1073.327,194.268,1069.835,194.268z"/>
		<g>
			<path fill="#F1F1F1" d="M1069.612,195.674c-0.292,1.805-1.356,3.455-2.755,4.833c-1.819,1.792-4.143,2.757-6.506,2.913
				c2.864,0.233,7.223-0.813,9.21-4.172c0.664-1.121,1.284-2.183,1.519-3.278C1071.397,194.481,1069.804,194.49,1069.612,195.674z"
				/>
			<g>
				<path fill="#1E3251" d="M1061.466,185.495c2.391,0,4.663,1.044,6.234,2.865c1.293,1.499,2.005,3.407,2.005,5.374
					c0,0.221-0.019,0.438-0.035,0.654l-0.123,1.6l1.535,0.467c1.811,0.551,3.075,2.263,3.075,4.161c0,2.397-1.939,4.347-4.322,4.347
					c-0.09,0-29.117,0.038-29.114,0.038c-2.198,0-4.055-1.996-4.055-4.359c0-2.296,1.836-4.382,4.102-4.498l10.491-0.143h2.109
					l-0.113-1.969l-0.016-0.159c-0.005-0.069-0.012-0.103-0.012-0.173C1053.228,189.156,1056.923,185.495,1061.466,185.495
					 M1061.466,183.495c-5.654,0-10.238,4.584-10.238,10.238c0,0.184,0.021,0.362,0.03,0.543
					c-5.717,0.003-10.537,0.005-10.537,0.005c-3.366,0.141-6.055,2.958-6.055,6.359s2.688,6.359,6.055,6.359
					c0,0,29.024-0.038,29.114-0.038c3.491,0,6.322-2.855,6.322-6.347c0-2.855-1.895-5.283-4.493-6.074
					c0.021-0.267,0.041-0.535,0.041-0.808c0-2.555-0.942-4.886-2.491-6.68C1067.337,184.878,1064.566,183.495,1061.466,183.495
					L1061.466,183.495z"/>
			</g>
		</g>
	</g>
	<path fill="#FFFFFF" d="M865.583,162c-0.084,0-0.166,0.011-0.25,0.013V162h-61v0.013c-6.097,0.134-11,5.108-11,11.237
		s4.903,11.103,11,11.237c0,0,61.166,0.013,61.25,0.013c6.213,0,11.25-5.037,11.25-11.25S871.796,162,865.583,162z"/>
	<circle fill="#FFFFFF" cx="836.917" cy="157.917" r="20.583"/>
	<circle fill="#FFFFFF" cx="855.917" cy="160.917" r="13.333"/>
	<g>
		<path fill="#F1F1F1" d="M854.554,147.336c2.352,4.317,2.828,9.619,1.59,14.776c-1.796,7.481-7.471,13.005-14.375,14.98
			c7.871-1.347,14.953-4.251,17.564-14.781c2.066-8.333-0.938-13.5-1.834-15.854C857.5,145.763,855.595,145.936,854.554,147.336z"/>
	</g>
	<g>
		<path fill="#1E3251" d="M836.917,137.333c7.622,0,14.261,4.153,17.818,10.31c0.39-0.034,0.782-0.06,1.182-0.06
			c7.364,0,13.333,5.969,13.333,13.333c0,0.565-0.047,1.118-0.115,1.664c4.472,1.488,7.668,5.729,7.668,10.7
			c0,6.213-5.068,11.281-11.281,11.281c-0.084,0-61.312,0.05-61.312,0.05c-6.097-0.134-11.125-4.983-11.125-11.112
			s4.75-10.5,10.75-10.5h12.908c-0.266-2-0.408-3.185-0.408-4.583C816.333,147.049,825.549,137.333,836.917,137.333
			 M836.917,135.542c-6.015,0-11.694,2.342-15.991,6.784c-4.251,4.393-6.592,10.092-6.592,16.143c0,0.889,0.053,1.639,0.146,2.531
			h-10.646c-7.269,0-12.75,5.568-12.75,12.694c0,7.07,5.868,12.306,13.081,13.306c0,0,0.002,0,0.005,0
			c0.637,0,61.176-0.243,61.353-0.243c7.322,0,13.28-6.055,13.28-13.378c0-5.196-2.979-9.888-7.558-12.054
			c0.003-0.121,0.005-0.056,0.005-0.175c0-8.455-6.878-15.149-15.333-15.149c-0.033,0-0.067,0-0.102,0
			C851.661,139,844.531,135.542,836.917,135.542L836.917,135.542z"/>
	</g>
</g>
<g id="Foreground">
	<rect x="-18.667" y="394" fill="#A9B4C4" width="1194" height="114"/>
	<g>
		<rect x="19.333" y="415" fill="#A9B4C4" width="4" height="3"/>
		<rect x="61.333" y="470" fill="#A9B4C4" width="4" height="2"/>
		<rect x="219.333" y="490" fill="#A9B4C4" width="4" height="2"/>
		<rect x="146.333" y="433" fill="#A9B4C4" width="4" height="2"/>
		<rect x="231.333" y="431" fill="#A9B4C4" width="4" height="3"/>
		<rect x="166.333" y="470" fill="#A9B4C4" width="4" height="2"/>
	</g>
	<g>
		<rect x="24.333" y="478" fill="#7E8EA7" width="4" height="2"/>
		<rect x="225.333" y="457" fill="#7E8EA7" width="4" height="2"/>
		<rect x="144.333" y="478" fill="#7E8EA7" width="4" height="2"/>
		<rect x="194.333" y="435" fill="#7E8EA7" width="4" height="2"/>
		<rect x="410.333" y="484" fill="#7E8EA7" width="4" height="2"/>
		<rect x="322.333" y="432" fill="#7E8EA7" width="4" height="3"/>
		<rect x="475.333" y="424" fill="#7E8EA7" width="4" height="2"/>
		<rect x="615.333" y="486" fill="#7E8EA7" width="4" height="2"/>
		<rect x="718.333" y="486" fill="#7E8EA7" width="4" height="2"/>
		<rect x="797.333" y="440" fill="#7E8EA7" width="4" height="2"/>
		<rect x="76.333" y="448" fill="#7E8EA7" width="4" height="2"/>
		<rect x="863.333" y="479" fill="#7E8EA7" width="4" height="2"/>
		<rect x="844.333" y="422" fill="#7E8EA7" width="4" height="2"/>
		<rect x="975.333" y="476" fill="#7E8EA7" width="4" height="3"/>
		<rect x="1049.333" y="414" fill="#7E8EA7" width="4" height="2"/>
		<rect x="1007.333" y="443" fill="#7E8EA7" width="4" height="2"/>
		<rect x="995.333" y="418" fill="#7E8EA7" width="4" height="3"/>
		<rect x="1079.333" y="471" fill="#7E8EA7" width="4" height="2"/>
		<rect x="934.333" y="439" fill="#7E8EA7" width="4" height="2"/>
	</g>
	<g>
		<rect x="129.333" y="464" fill="#D4D9E2" width="4" height="2"/>
		<rect x="62.333" y="423" fill="#D4D9E2" width="4" height="3"/>
		<rect x="220.333" y="403" fill="#D4D9E2" width="4" height="3"/>
		<rect x="272.333" y="483" fill="#D4D9E2" width="4" height="2"/>
		<rect x="524.333" y="484" fill="#D4D9E2" width="4" height="2"/>
		<rect x="511.333" y="423" fill="#D4D9E2" width="4" height="3"/>
		<rect x="644.333" y="404" fill="#D4D9E2" width="4" height="3"/>
		<rect x="642.333" y="470" fill="#D4D9E2" width="4" height="2"/>
		<rect x="750.333" y="398" fill="#D4D9E2" width="4" height="2"/>
		<rect x="901.333" y="417" fill="#D4D9E2" width="4" height="2"/>
		<rect x="882.333" y="474" fill="#D4D9E2" width="4" height="2"/>
		<rect x="1080.333" y="397" fill="#D4D9E2" width="4" height="2"/>
		<rect x="1033.333" y="477" fill="#D4D9E2" width="4" height="2"/>
		<rect x="1126.333" y="479" fill="#D4D9E2" width="4" height="2"/>
		<rect x="1117.333" y="425" fill="#D4D9E2" width="4" height="2"/>
	</g>
	<g>
		<rect x="-38.667" y="383" fill="#D4D9E2" stroke="#1E3251" stroke-width="2" stroke-miterlimit="10" width="77" height="13"/>
		<rect x="38.333" y="383" fill="#D4D9E2" stroke="#1E3251" stroke-width="2" stroke-miterlimit="10" width="76" height="13"/>
		<rect x="114.333" y="383" fill="#D4D9E2" stroke="#1E3251" stroke-width="2" stroke-miterlimit="10" width="77" height="13"/>
		<rect x="191.333" y="383" fill="#D4D9E2" stroke="#1E3251" stroke-width="2" stroke-miterlimit="10" width="77" height="13"/>
		<rect x="268.333" y="383" fill="#D4D9E2" stroke="#1E3251" stroke-width="2" stroke-miterlimit="10" width="77" height="13"/>
		<rect x="345.333" y="383" fill="#D4D9E2" stroke="#1E3251" stroke-width="2" stroke-miterlimit="10" width="76" height="13"/>
		<rect x="421.333" y="383" fill="#D4D9E2" stroke="#1E3251" stroke-width="2" stroke-miterlimit="10" width="77" height="13"/>
		<rect x="498.333" y="383" fill="#D4D9E2" stroke="#1E3251" stroke-width="2" stroke-miterlimit="10" width="77" height="13"/>
		<rect x="575.333" y="383" fill="#D4D9E2" stroke="#1E3251" stroke-width="2" stroke-miterlimit="10" width="77" height="13"/>
		<rect x="652.333" y="383" fill="#D4D9E2" stroke="#1E3251" stroke-width="2" stroke-miterlimit="10" width="76" height="13"/>
		<rect x="728.333" y="383" fill="#D4D9E2" stroke="#1E3251" stroke-width="2" stroke-miterlimit="10" width="77" height="13"/>
		<rect x="805.333" y="383" fill="#D4D9E2" stroke="#1E3251" stroke-width="2" stroke-miterlimit="10" width="77" height="13"/>
		<rect x="882.333" y="383" fill="#D4D9E2" stroke="#1E3251" stroke-width="2" stroke-miterlimit="10" width="77" height="13"/>
		<rect x="959.333" y="383" fill="#D4D9E2" stroke="#1E3251" stroke-width="2" stroke-miterlimit="10" width="76" height="13"/>
		<rect x="1035.333" y="383" fill="#D4D9E2" stroke="#1E3251" stroke-width="2" stroke-miterlimit="10" width="77" height="13"/>
		<rect x="1112.333" y="383" fill="#D4D9E2" stroke="#1E3251" stroke-width="2" stroke-miterlimit="10" width="77" height="13"/>
	</g>
	<g>
		<path fill="#DAE3F1" d="M909.333,322.949c0,1.685-1.366,3.051-3.051,3.051h-24.898c-1.685,0-3.051-1.366-3.051-3.051v-34.898
			c0-1.685,1.366-3.051,3.051-3.051h24.898c1.685,0,3.051,1.366,3.051,3.051V322.949z"/>
		<g>
			<line fill="none" stroke="#1E3251" stroke-miterlimit="10" x1="889.333" y1="296.5" x2="905.333" y2="296.5"/>
			<line fill="none" stroke="#1E3251" stroke-miterlimit="10" x1="889.333" y1="301.5" x2="905.333" y2="301.5"/>
			<rect x="879.833" y="296.5" fill="none" stroke="#1E3251" stroke-miterlimit="10" width="7" height="8"/>
			<rect x="879.833" y="308.5" fill="none" stroke="#1E3251" stroke-miterlimit="10" width="7" height="8"/>
			<line fill="none" stroke="#1E3251" stroke-miterlimit="10" x1="889.333" y1="308.5" x2="905.333" y2="308.5"/>
			<line fill="none" stroke="#1E3251" stroke-miterlimit="10" x1="889.333" y1="313.5" x2="905.333" y2="313.5"/>
		</g>
		<g>
			<path fill="#1E3251" d="M906.054,284h-24.407c-2.233,0-4.313,1.983-4.313,4.217v35.085c0,2.233,2.08,3.698,4.313,3.698h24.407
				c2.233,0,4.279-1.465,4.279-3.698v-35.085C910.333,285.983,908.288,284,906.054,284z M909.333,321l-31-0.016v-30.078
				l12.136,1.079l0.199-2.243c0.101-1.782,1.565-3.201,3.373-3.201s3.271,1.419,3.372,3.201l0.15,2.248l11.77-1.396V321z"/>
		</g>
		<path fill="#1E3251" d="M895.261,290c0.166,0,0.265-1.062,0.265-1.389c0-0.883-0.717-1.474-1.601-1.474s-1.601,0.527-1.601,1.411
			c0,0.325,0.099,1.451,0.264,1.451h-1.255v2h5v-2H895.261z"/>
		<rect x="910.333" y="282" fill="#DAE3F1" stroke="#1E3251" stroke-width="2" stroke-miterlimit="10" width="6" height="101"/>
		<g>
			<rect x="908.333" y="258" fill="#DEEBFE" stroke="#1E3251" stroke-width="2" stroke-miterlimit="10" width="8" height="23"/>
			<rect x="916.333" y="258" fill="#A9B4C4" stroke="#1E3251" stroke-width="2" stroke-miterlimit="10" width="3" height="23"/>
		</g>
		<rect x="880.333" y="254" fill="#DAE3F1" stroke="#1E3251" stroke-width="2" stroke-miterlimit="10" width="45" height="5"/>
		<g>
			<g>
				<g>
					<ellipse fill="#1E3251" cx="913.5" cy="330.346" rx="0.784" ry="0.777"/>
				</g>
				<g>
					<ellipse fill="#1E3251" cx="913.5" cy="342.779" rx="0.784" ry="0.777"/>
				</g>
				<g>
					<ellipse fill="#1E3251" cx="913.5" cy="355.213" rx="0.784" ry="0.777"/>
				</g>
				<g>
					<ellipse fill="#1E3251" cx="913.5" cy="367.646" rx="0.784" ry="0.777"/>
				</g>
			</g>
			<g>
				<g>
					<ellipse fill="#1E3251" cx="913.5" cy="292.325" rx="0.784" ry="0.777"/>
				</g>
				<g>
					<ellipse fill="#1E3251" cx="913.5" cy="304.759" rx="0.784" ry="0.777"/>
				</g>
				<g>
					<ellipse fill="#1E3251" cx="913.5" cy="317.193" rx="0.784" ry="0.777"/>
				</g>
			</g>
		</g>
	</g>
	<g opacity="0.2">
		<g>
			<path fill="#1E3251" d="M909.333,287.186c0-1.685-0.928-3.186-2.613-3.186h-16.568l19.182,25.939V287.186z"/>
		</g>
	</g>
</g>
<g id="Bus" display="none">
	<g display="inline">
		<path fill="#5B99F9" stroke="#1E3251" stroke-width="4" stroke-miterlimit="10" d="M836.333,418.937v-17.273v-93.437
			l-6.491-67.006c-1.373-8.048-7.108-13.221-15.781-13.221H328.688c-8.673,0-20.354,2.064-20.354,10.738v8.244V447h48.233
			c0.106-19,15.09-33.37,33.562-33.37S423.583,428,423.69,447h12.181c0.105-19,15.09-33.37,33.561-33.37
			c18.472,0,33.456,14.37,33.562,33.37h223.394c0.106-19,15.09-33.37,33.562-33.37S793.405,428,793.511,447h42.822v-4.9l8-2.072
			v-18.734L836.333,418.937z"/>
		<path opacity="0.4" fill="#5D7DAD" d="M800.386,469.189c0-7.728-110.176-2.356-237.125-2.356s-214.646-3.288-214.379,3.778
			c0.035,0.953-1.63,2.775,22.159,3.517c-0.277,0.369-0.424,0.753-0.424,1.146c0,3.14,9.351,5.685,20.886,5.685
			c11.534,0,20.886-2.545,20.886-5.685c0-0.059-0.01-0.116-0.017-0.175c11.119,0.198,23.177,0.374,36.021,0.527
			c0.668,2.975,9.741,5.332,20.843,5.332c10.617,0,19.676-3.286,21.003-6.077c23.028,0.159,47.777,0,73.414,0
			c70.516,0,133.21,0.724,175.375-0.301c-0.103,0.228-0.161,0.458-0.161,0.693c0,3.14,9.351,5.685,20.886,5.685
			c11.536,0,20.886-2.545,20.886-5.685c0-0.744-0.532-1.455-1.491-2.107C788.188,472.66,800.386,472.657,800.386,469.189z"/>
		<g>
			<path fill="#9DC2FB" d="M821.585,247.933c0,0-0.17-4.748-2.961-8.22c-3.493-4.346-11.1-4.428-11.1-4.428L723.671,235H655.36
				h-68.311h-68.31h-68.312h-68.312h-70.09c0,0-0.693,1.415-0.693,3.738c0,1.734,0,54.262,0,54.262h70.783h68.312h68.312h68.31
				h68.311h68.312h103.178L821.585,247.933z"/>
		</g>
		<path fill="#FFEA9C" d="M770.38,386.979c-48.467,2.607-63.93,22.454-122.145,27.264c-0.395-12.581-10.47-22.662-23.11-22.662
			c-12.818,0-23.116,10.378-23.23,23.204c-65.693-4.937-139.19-72.315-191.04-122.315l-100.521,0.054V445h44.291
			c1.417-20,16.999-33.375,35.504-33.375S424.082,425,425.582,445h8.417c1.167-19,16.928-33.416,35.433-33.416
			c18.508,0,34.525,14.416,35.65,33.416h219.751c1.438-18,15.659-33,34.166-33s34.667,12,36.417,33h38.918v-4.406l8-2.125v-15.656
			l-8-2.406v-23.938C834.333,396.469,829.029,383.822,770.38,386.979z"/>
		<path fill="none" stroke="#1E3251" stroke-width="2" stroke-miterlimit="10" d="M836.666,398.022c0,0-9.012-14.2-67.66-11.044
			c-48.468,2.607-63.742,22.454-121.958,27.264c-0.394-12.581-10.376-22.662-23.017-22.662c-12.818,0-23.067,10.378-23.182,23.204
			c-65.693-4.937-137.791-71.851-189.643-121.851"/>
		<g>
			<circle fill="#53688A" stroke="#1E3251" stroke-width="4" stroke-miterlimit="10" cx="469.431" cy="446.615" r="27.285"/>
			<circle fill="#7E8EA7" stroke="#1E3251" stroke-width="2" stroke-miterlimit="10" cx="469.432" cy="446.615" r="14.119"/>
			<g>
				<g>
					<path fill="#1E3251" d="M475.122,439.479c0.341-0.431,0.837-0.667,1.391-0.635c0.562,0.012,1.154,0.321,1.592,0.853
						c0.204,0.275,0.364,0.567,0.444,0.866c0.071,0.305,0.084,0.604,0.039,0.874c-0.093,0.547-0.452,0.988-0.936,1.219
						c-0.496,0.236-1.014,0.243-1.483,0.151c-0.237-0.046-0.454-0.125-0.637-0.238c-0.192-0.109-0.371-0.238-0.5-0.419
						c-0.284-0.338-0.388-0.785-0.393-1.252C474.654,440.42,474.79,439.9,475.122,439.479z"/>
				</g>
				<g>
					<path fill="#1E3251" d="M467.401,437.717c-0.124-0.531,0-1.076,0.371-1.483c0.362-0.435,0.972-0.694,1.659-0.717
						c0.688,0.022,1.298,0.282,1.66,0.717c0.371,0.407,0.494,0.952,0.371,1.483c-0.122,0.525-0.441,0.947-0.807,1.262
						c-0.367,0.286-0.781,0.492-1.225,0.469c-0.442,0.023-0.855-0.183-1.223-0.469C467.841,438.664,467.523,438.242,467.401,437.717
						z"/>
				</g>
				<g>
					<path fill="#1E3251" d="M461.211,442.656c-0.483-0.23-0.843-0.672-0.936-1.219c-0.045-0.27-0.032-0.569,0.039-0.874
						c0.08-0.299,0.239-0.591,0.444-0.866c0.438-0.531,1.029-0.841,1.592-0.853c0.554-0.032,1.05,0.204,1.391,0.635
						c0.332,0.421,0.469,0.94,0.482,1.419c-0.004,0.467-0.109,0.914-0.393,1.252c-0.129,0.181-0.309,0.31-0.5,0.419
						c-0.184,0.113-0.4,0.192-0.637,0.238C462.225,442.899,461.707,442.893,461.211,442.656z"/>
				</g>
				<g>
					<path fill="#1E3251" d="M461.211,450.573c-0.481,0.235-1.05,0.241-1.536-0.026c-0.486-0.264-0.909-0.789-1.059-1.465
						c-0.142-0.675-0.022-1.331,0.325-1.778c0.333-0.451,0.814-0.691,1.357-0.688c0.542,0.002,1.046,0.22,1.417,0.509
						c0.355,0.296,0.648,0.655,0.733,1.086c0.095,0.432,0.019,0.868-0.196,1.297C462.035,449.932,461.705,450.333,461.211,450.573z"
						/>
				</g>
				<g>
					<path fill="#1E3251" d="M467.401,455.513c-0.118,0.53-0.461,0.951-0.979,1.183c-0.502,0.205-1.189,0.229-1.803-0.09
						c-0.631-0.281-1.041-0.832-1.191-1.354c-0.143-0.548-0.026-1.078,0.314-1.5c0.34-0.422,0.822-0.678,1.273-0.781
						c0.471-0.123,0.906-0.079,1.312,0.096c0.389,0.208,0.693,0.52,0.889,0.967C467.417,454.447,467.518,454.983,467.401,455.513z"
						/>
				</g>
				<g>
					<path fill="#1E3251" d="M475.122,453.751c0.341,0.422,0.456,0.952,0.313,1.5c-0.15,0.522-0.559,1.073-1.19,1.354
						c-0.614,0.318-1.302,0.295-1.804,0.09c-0.518-0.231-0.861-0.652-0.979-1.183c-0.117-0.529-0.016-1.065,0.185-1.48
						c0.195-0.447,0.5-0.759,0.89-0.967c0.405-0.175,0.841-0.219,1.311-0.096C474.299,453.073,474.782,453.329,475.122,453.751z"/>
				</g>
				<g>
					<path fill="#1E3251" d="M478.564,446.615c0.543-0.003,1.023,0.237,1.357,0.688c0.348,0.447,0.467,1.104,0.325,1.778
						c-0.149,0.676-0.573,1.201-1.058,1.465c-0.488,0.268-1.056,0.262-1.537,0.026c-0.493-0.24-0.822-0.642-1.042-1.066
						c-0.216-0.429-0.292-0.865-0.196-1.297c0.085-0.431,0.377-0.79,0.733-1.086C477.517,446.835,478.022,446.617,478.564,446.615z"
						/>
				</g>
			</g>
		</g>
		<g>
			<path fill="#9DC2FB" stroke="#1E3251" stroke-width="2" stroke-miterlimit="10" d="M830.026,310c-3.469,0-6.692,1.75-6.692,5.219
				v58.104c0,3.469,3.224,7.678,6.692,7.678h5.308v-71H830.026z"/>
		</g>
		<g>
			<g>
				<polygon fill="#9DC2FB" points="715.96,322 647.649,322 579.338,322 511.029,322 442.716,322 374.333,322 374.333,380 
					442.716,380 511.029,380 579.338,380 647.649,380 715.96,380 808.333,380 808.333,322 				"/>
			</g>
		</g>
		<g>
			<path fill="#5B99F9" d="M608.333,435v-7.5c2-1.104,3.18-4.002,3.18-7.133c0-0.804-0.075-2.522-0.057-4.135
				c0.016-1.434-0.017-2.784-0.017-3.342c0-7.062,5.354-12.597,12.229-12.627l0.045,0.009l0.122-0.01
				c6.847,0.001,12.251,5.548,12.251,12.628c0,0.558,0.015,1.908,0.03,3.342c0.02,1.612-0.057,3.331-0.057,4.135
				c0,3.131,1.273,6.028,3.273,7.133v7.5H608.333z"/>
			<g>
				<path fill="#28436C" d="M623.624,401.264l0.123,0.011l0.112-0.011c6.301,0.046,11.225,5.137,11.225,11.627
					c0,0.56,0.016,1.915,0.032,3.354c0.019,1.607-0.056,3.321-0.056,4.123c0,3.265,1.273,6.233,3.273,7.68V434h-14.595h-14.405
					v-5.953c2-1.447,3.18-4.415,3.18-7.68c0-0.802-0.075-2.516-0.057-4.124c0.016-1.438-0.017-2.793-0.017-3.353
					C612.44,406.397,617.32,401.306,623.624,401.264 M623.774,399.264c-0.021,0-0.024,0.002-0.035,0.003
					c-0.012-0.001-0.015-0.003-0.036-0.003c-7.525,0-13.31,6.101-13.31,13.627c0,1.186,0.12,5.958,0.12,7.477
					c0,3.238-2.18,5.912-3.18,6.487V436h16.405h16.595v-9.146c-2-0.575-3.273-3.249-3.273-6.487c0-1.519-0.023-6.291-0.023-7.477
					C637.037,405.364,631.299,399.264,623.774,399.264L623.774,399.264z"/>
			</g>
		</g>
		<rect x="568.333" y="387" fill="none" stroke="#1E3251" stroke-width="2" stroke-miterlimit="10" width="10" height="4"/>
		<rect x="705.333" y="387" fill="none" stroke="#1E3251" stroke-width="2" stroke-miterlimit="10" width="11" height="4"/>
		<rect x="799.333" y="428" fill="none" stroke="#1E3251" stroke-width="2" stroke-miterlimit="10" width="31" height="18"/>
		<line fill="none" stroke="#1E3251" stroke-width="2" stroke-miterlimit="10" x1="804.333" y1="441" x2="810.333" y2="441"/>
		<line fill="none" stroke="#1E3251" stroke-width="2" stroke-miterlimit="10" x1="819.333" y1="441" x2="825.333" y2="441"/>
		<g>
			<circle fill="#53688A" stroke="#1E3251" stroke-width="4" stroke-miterlimit="10" cx="390.128" cy="446.615" r="27.285"/>
			<circle fill="#7E8EA7" stroke="#1E3251" stroke-width="2" stroke-miterlimit="10" cx="390.128" cy="446.615" r="14.119"/>
			<g>
				<g>
					<path fill="#1E3251" d="M395.818,439.479c0.341-0.431,0.837-0.667,1.391-0.635c0.562,0.012,1.154,0.321,1.592,0.853
						c0.205,0.275,0.364,0.567,0.444,0.866c0.071,0.305,0.085,0.604,0.039,0.874c-0.093,0.547-0.452,0.988-0.935,1.219
						c-0.496,0.236-1.014,0.243-1.484,0.151c-0.236-0.046-0.453-0.125-0.637-0.238c-0.191-0.109-0.371-0.238-0.5-0.419
						c-0.283-0.338-0.389-0.785-0.393-1.252C395.349,440.42,395.486,439.9,395.818,439.479z"/>
				</g>
				<g>
					<path fill="#1E3251" d="M388.097,437.717c-0.123-0.531,0-1.076,0.371-1.483c0.362-0.435,0.972-0.694,1.66-0.717
						c0.688,0.022,1.297,0.282,1.66,0.717c0.371,0.407,0.494,0.952,0.371,1.483c-0.123,0.525-0.441,0.947-0.809,1.262
						c-0.366,0.286-0.78,0.492-1.223,0.469c-0.443,0.023-0.857-0.183-1.224-0.469C388.539,438.664,388.219,438.242,388.097,437.717z
						"/>
				</g>
				<g>
					<path fill="#1E3251" d="M381.908,442.656c-0.482-0.23-0.843-0.672-0.936-1.219c-0.045-0.27-0.031-0.569,0.039-0.874
						c0.08-0.299,0.24-0.591,0.445-0.866c0.437-0.531,1.028-0.841,1.592-0.853c0.553-0.032,1.049,0.204,1.39,0.635
						c0.332,0.421,0.469,0.94,0.482,1.419c-0.004,0.467-0.108,0.914-0.393,1.252c-0.129,0.181-0.308,0.31-0.499,0.419
						c-0.184,0.113-0.4,0.192-0.638,0.238C382.921,442.899,382.404,442.893,381.908,442.656z"/>
				</g>
				<g>
					<path fill="#1E3251" d="M381.908,450.573c-0.481,0.235-1.049,0.241-1.536-0.026c-0.485-0.264-0.909-0.789-1.06-1.465
						c-0.141-0.675-0.021-1.331,0.326-1.778c0.334-0.451,0.814-0.691,1.357-0.688c0.542,0.002,1.047,0.22,1.417,0.509
						c0.356,0.296,0.648,0.655,0.733,1.086c0.096,0.432,0.02,0.868-0.196,1.297C382.731,449.932,382.402,450.333,381.908,450.573z"
						/>
				</g>
				<g>
					<path fill="#1E3251" d="M388.097,455.513c-0.117,0.53-0.46,0.951-0.979,1.183c-0.502,0.205-1.189,0.229-1.803-0.09
						c-0.632-0.281-1.041-0.832-1.191-1.354c-0.143-0.548-0.027-1.078,0.313-1.5c0.34-0.422,0.822-0.678,1.274-0.781
						c0.471-0.123,0.905-0.079,1.311,0.096c0.39,0.208,0.695,0.52,0.891,0.967C388.113,454.447,388.214,454.983,388.097,455.513z"/>
				</g>
				<g>
					<path fill="#1E3251" d="M395.818,453.751c0.342,0.422,0.456,0.952,0.314,1.5c-0.15,0.522-0.561,1.073-1.191,1.354
						c-0.613,0.318-1.301,0.295-1.803,0.09c-0.519-0.231-0.861-0.652-0.979-1.183c-0.119-0.529-0.016-1.065,0.184-1.48
						c0.195-0.447,0.5-0.759,0.89-0.967c0.405-0.175,0.841-0.219,1.312-0.096C394.996,453.073,395.478,453.329,395.818,453.751z"/>
				</g>
				<g>
					<path fill="#1E3251" d="M399.26,446.615c0.544-0.003,1.024,0.237,1.357,0.688c0.349,0.447,0.468,1.104,0.326,1.778
						c-0.15,0.676-0.573,1.201-1.06,1.465c-0.486,0.268-1.055,0.262-1.535,0.026c-0.494-0.24-0.823-0.642-1.042-1.066
						c-0.216-0.429-0.292-0.865-0.197-1.297c0.085-0.431,0.378-0.79,0.734-1.086C398.214,446.835,398.718,446.617,399.26,446.615z"
						/>
				</g>
			</g>
		</g>
		<g>
			<circle fill="#53688A" stroke="#1E3251" stroke-width="4" stroke-miterlimit="10" cx="759.949" cy="446.615" r="27.285"/>
			<circle fill="#7E8EA7" stroke="#1E3251" stroke-width="2" stroke-miterlimit="10" cx="759.949" cy="446.615" r="14.119"/>
			<g>
				<g>
					<path fill="#1E3251" d="M765.639,439.479c0.341-0.431,0.837-0.667,1.391-0.635c0.562,0.012,1.154,0.321,1.591,0.853
						c0.206,0.275,0.364,0.567,0.445,0.866c0.07,0.305,0.084,0.604,0.038,0.874c-0.092,0.547-0.451,0.988-0.936,1.219
						c-0.495,0.236-1.013,0.243-1.483,0.151c-0.236-0.046-0.453-0.125-0.636-0.238c-0.192-0.109-0.371-0.238-0.5-0.419
						c-0.284-0.338-0.389-0.785-0.393-1.252C765.171,440.42,765.307,439.9,765.639,439.479z"/>
				</g>
				<g>
					<path fill="#1E3251" d="M757.918,437.717c-0.124-0.531,0-1.076,0.371-1.483c0.361-0.435,0.971-0.694,1.659-0.717
						c0.688,0.022,1.297,0.282,1.66,0.717c0.371,0.407,0.495,0.952,0.371,1.483c-0.122,0.525-0.441,0.947-0.808,1.262
						c-0.366,0.286-0.78,0.492-1.224,0.469c-0.442,0.023-0.856-0.183-1.224-0.469C758.359,438.664,758.04,438.242,757.918,437.717z"
						/>
				</g>
				<g>
					<path fill="#1E3251" d="M751.729,442.656c-0.483-0.23-0.843-0.672-0.936-1.219c-0.045-0.27-0.032-0.569,0.038-0.874
						c0.08-0.299,0.24-0.591,0.445-0.866c0.437-0.531,1.029-0.841,1.592-0.853c0.554-0.032,1.05,0.204,1.391,0.635
						c0.331,0.421,0.468,0.94,0.481,1.419c-0.003,0.467-0.109,0.914-0.393,1.252c-0.129,0.181-0.308,0.31-0.5,0.419
						c-0.183,0.113-0.399,0.192-0.636,0.238C752.743,442.899,752.224,442.893,751.729,442.656z"/>
				</g>
				<g>
					<path fill="#1E3251" d="M751.729,450.573c-0.481,0.235-1.05,0.241-1.537-0.026c-0.485-0.264-0.909-0.789-1.059-1.465
						c-0.142-0.675-0.022-1.331,0.326-1.778c0.333-0.451,0.813-0.691,1.357-0.688c0.542,0.002,1.045,0.22,1.417,0.509
						c0.355,0.296,0.648,0.655,0.732,1.086c0.095,0.432,0.02,0.868-0.195,1.297C752.551,449.932,752.222,450.333,751.729,450.573z"
						/>
				</g>
				<g>
					<path fill="#1E3251" d="M757.918,455.513c-0.118,0.53-0.461,0.951-0.979,1.183c-0.502,0.205-1.189,0.229-1.803-0.09
						c-0.631-0.281-1.041-0.832-1.191-1.354c-0.142-0.548-0.027-1.078,0.314-1.5c0.339-0.422,0.822-0.678,1.273-0.781
						c0.471-0.123,0.906-0.079,1.312,0.096c0.389,0.208,0.694,0.52,0.889,0.967C757.934,454.447,758.036,454.983,757.918,455.513z"
						/>
				</g>
				<g>
					<path fill="#1E3251" d="M765.639,453.751c0.342,0.422,0.456,0.952,0.313,1.5c-0.15,0.522-0.56,1.073-1.191,1.354
						c-0.613,0.318-1.301,0.295-1.803,0.09c-0.519-0.231-0.861-0.652-0.979-1.183c-0.118-0.529-0.016-1.065,0.184-1.48
						c0.196-0.447,0.501-0.759,0.891-0.967c0.405-0.175,0.841-0.219,1.311-0.096C764.816,453.073,765.299,453.329,765.639,453.751z"
						/>
				</g>
				<g>
					<path fill="#1E3251" d="M769.082,446.615c0.542-0.003,1.024,0.237,1.357,0.688c0.348,0.447,0.467,1.104,0.325,1.778
						c-0.149,0.676-0.573,1.201-1.059,1.465c-0.486,0.268-1.055,0.262-1.537,0.026c-0.492-0.24-0.821-0.642-1.041-1.066
						c-0.216-0.429-0.292-0.865-0.196-1.297c0.084-0.431,0.377-0.79,0.732-1.086C768.036,446.835,768.539,446.617,769.082,446.615z"
						/>
				</g>
			</g>
		</g>
		<rect x="429.333" y="387" fill="none" stroke="#1E3251" stroke-width="2" stroke-miterlimit="10" width="10" height="4"/>
		<g>
			<g>
				<line fill="none" stroke="#1E3251" stroke-width="2" stroke-miterlimit="10" x1="349.333" y1="336" x2="358.333" y2="336"/>
			</g>
			<g>
				<line fill="none" stroke="#1E3251" stroke-width="2" stroke-miterlimit="10" x1="349.333" y1="342" x2="358.333" y2="342"/>
			</g>
			<g>
				<line fill="none" stroke="#1E3251" stroke-width="2" stroke-miterlimit="10" x1="349.333" y1="348" x2="358.333" y2="348"/>
			</g>
			<g>
				<line fill="none" stroke="#1E3251" stroke-width="2" stroke-miterlimit="10" x1="349.333" y1="354" x2="358.333" y2="354"/>
			</g>
			<g>
				<line fill="none" stroke="#1E3251" stroke-width="2" stroke-miterlimit="10" x1="349.333" y1="361" x2="358.333" y2="361"/>
			</g>
			<g>
				<line fill="none" stroke="#1E3251" stroke-width="2" stroke-miterlimit="10" x1="349.333" y1="367" x2="358.333" y2="367"/>
			</g>
			<g>
				<line fill="none" stroke="#1E3251" stroke-width="2" stroke-miterlimit="10" x1="349.333" y1="373" x2="358.333" y2="373"/>
			</g>
			<g>
				<line fill="none" stroke="#1E3251" stroke-width="2" stroke-miterlimit="10" x1="349.333" y1="379" x2="358.333" y2="379"/>
			</g>
		</g>
		<g>
			<g>
				<line fill="none" stroke="#1E3251" stroke-width="2" stroke-miterlimit="10" x1="334.333" y1="336" x2="343.333" y2="336"/>
			</g>
			<g>
				<line fill="none" stroke="#1E3251" stroke-width="2" stroke-miterlimit="10" x1="334.333" y1="342" x2="343.333" y2="342"/>
			</g>
			<g>
				<line fill="none" stroke="#1E3251" stroke-width="2" stroke-miterlimit="10" x1="334.333" y1="348" x2="343.333" y2="348"/>
			</g>
			<g>
				<line fill="none" stroke="#1E3251" stroke-width="2" stroke-miterlimit="10" x1="334.333" y1="354" x2="343.333" y2="354"/>
			</g>
			<g>
				<line fill="none" stroke="#1E3251" stroke-width="2" stroke-miterlimit="10" x1="334.333" y1="361" x2="343.333" y2="361"/>
			</g>
			<g>
				<line fill="none" stroke="#1E3251" stroke-width="2" stroke-miterlimit="10" x1="334.333" y1="367" x2="343.333" y2="367"/>
			</g>
			<g>
				<line fill="none" stroke="#1E3251" stroke-width="2" stroke-miterlimit="10" x1="334.333" y1="373" x2="343.333" y2="373"/>
			</g>
			<g>
				<line fill="none" stroke="#1E3251" stroke-width="2" stroke-miterlimit="10" x1="334.333" y1="379" x2="343.333" y2="379"/>
			</g>
		</g>
		<g>
			<g>
				<line fill="none" stroke="#1E3251" stroke-width="2" stroke-miterlimit="10" x1="320.333" y1="336" x2="329.333" y2="336"/>
			</g>
			<g>
				<line fill="none" stroke="#1E3251" stroke-width="2" stroke-miterlimit="10" x1="320.333" y1="342" x2="329.333" y2="342"/>
			</g>
			<g>
				<line fill="none" stroke="#1E3251" stroke-width="2" stroke-miterlimit="10" x1="320.333" y1="348" x2="329.333" y2="348"/>
			</g>
			<g>
				<line fill="none" stroke="#1E3251" stroke-width="2" stroke-miterlimit="10" x1="320.333" y1="354" x2="329.333" y2="354"/>
			</g>
			<g>
				<line fill="none" stroke="#1E3251" stroke-width="2" stroke-miterlimit="10" x1="320.333" y1="361" x2="329.333" y2="361"/>
			</g>
			<g>
				<line fill="none" stroke="#1E3251" stroke-width="2" stroke-miterlimit="10" x1="320.333" y1="367" x2="329.333" y2="367"/>
			</g>
			<g>
				<line fill="none" stroke="#1E3251" stroke-width="2" stroke-miterlimit="10" x1="320.333" y1="373" x2="329.333" y2="373"/>
			</g>
			<g>
				<line fill="none" stroke="#1E3251" stroke-width="2" stroke-miterlimit="10" x1="320.333" y1="379" x2="329.333" y2="379"/>
			</g>
		</g>
		<g>
			<g>
				<line fill="none" stroke="#1E3251" stroke-width="2" stroke-miterlimit="10" x1="320.333" y1="416" x2="329.333" y2="416"/>
			</g>
			<g>
				<line fill="none" stroke="#1E3251" stroke-width="2" stroke-miterlimit="10" x1="320.333" y1="422" x2="329.333" y2="422"/>
			</g>
			<g>
				<line fill="none" stroke="#1E3251" stroke-width="2" stroke-miterlimit="10" x1="320.333" y1="428" x2="329.333" y2="428"/>
			</g>
			<g>
				<line fill="none" stroke="#1E3251" stroke-width="2" stroke-miterlimit="10" x1="320.333" y1="434" x2="329.333" y2="434"/>
			</g>
		</g>
		<g>
			<g>
				<line fill="none" stroke="#1E3251" stroke-width="2" stroke-miterlimit="10" x1="334.333" y1="416" x2="343.333" y2="416"/>
			</g>
			<g>
				<line fill="none" stroke="#1E3251" stroke-width="2" stroke-miterlimit="10" x1="334.333" y1="422" x2="343.333" y2="422"/>
			</g>
			<g>
				<line fill="none" stroke="#1E3251" stroke-width="2" stroke-miterlimit="10" x1="334.333" y1="428" x2="343.333" y2="428"/>
			</g>
			<g>
				<line fill="none" stroke="#1E3251" stroke-width="2" stroke-miterlimit="10" x1="334.333" y1="434" x2="343.333" y2="434"/>
			</g>
		</g>
		<g opacity="0.2">
			<path fill="#1E3251" d="M808.663,334.402c-0.105-1.313-1.141-1.365-1.896-1.402L800,332.969c-0.553,0-0.666,0.447-0.666,1v21
				c0,0.553-0.221,1.031,0.332,1.031h5.531c0.759,0,1.44-0.298,1.972-0.832c1.412-1.421,1.515-4.238,1.499-6.993L808.663,334.402z"
				/>
			<path fill="#1E3251" d="M804.333,326.722V333h2v-6.072c2-0.207,3-1.812,3-3.386v-5.146c0-1.107-1.258-2.396-4.066-2.396h-0.203
				c-1.91,0-3.763,0.561-4.015,2.121c-0.029,0.091,0.284,0.17,0.284,0.274v5.146c0,0.112,0.023,0.231,0.058,0.354
				C801.609,325.08,802.333,326.235,804.333,326.722z M807.652,318.148c0.01,0.092,0.014,0.178,0.014,0.247
				C807.666,318.303,807.657,318.229,807.652,318.148z"/>
		</g>
		<g>
			<g>
				<path fill="#5B99F9" stroke="#1E3251" stroke-width="2" stroke-linejoin="round" stroke-miterlimit="10" d="M804.178,331h-5.845
					v21h4.863c2.683,0,3.137-5.124,3.137-7.275v-13.242C806.333,330.959,805.458,331,804.178,331z"/>
			</g>
			<path fill="#1E3251" stroke="#1E3251" stroke-miterlimit="10" d="M806.833,320.542c0,1.34-1.678,2.958-3.566,2.958h-0.203
				c-1.889,0-3.23-1.618-3.23-2.958v-5.146c0-1.34,1.342-1.896,3.23-1.896h0.203c1.889,0,3.566,0.556,3.566,1.896V320.542z"/>
			
				<line fill="#4D678F" stroke="#1E3251" stroke-width="2" stroke-linejoin="round" stroke-miterlimit="10" x1="803.333" y1="316" x2="803.333" y2="330"/>
		</g>
		<line fill="none" stroke="#1E3251" stroke-width="2" stroke-miterlimit="10" x1="835.333" y1="420" x2="835.333" y2="441"/>
		<polygon fill="#ADCCFB" points="684.958,291.875 641.509,291.926 696.509,236.926 739.739,237.093 		"/>
		<polygon fill="#ADCCFB" points="703.958,291.875 698.509,291.926 753.509,236.926 758.739,237.093 		"/>
		<polygon fill="#ADCCFB" points="591.958,380.875 554.509,380.926 609.509,325.926 646.739,326.093 		"/>
		<polygon fill="#ADCCFB" points="610.958,380.875 605.509,380.926 660.509,325.926 665.739,326.093 		"/>
		<path fill="#7CAEFA" d="M820.666,242c0,0-1.645-2.906-4.146-4.24s-8.663-0.76-8.663-0.76H314.333v-2h-4v58h4v-31.594
			c0,0-0.271-9.859,4.104-14.859S330.229,242,330.229,242H820.666z"/>
		<g>
			<rect x="375.333" y="236" fill="none" stroke="#1E3251" stroke-width="2" stroke-miterlimit="10" width="68" height="57"/>
			<rect x="443.333" y="236" fill="none" stroke="#1E3251" stroke-width="2" stroke-miterlimit="10" width="68" height="57"/>
			<rect x="511.333" y="236" fill="none" stroke="#1E3251" stroke-width="2" stroke-miterlimit="10" width="69" height="57"/>
			<rect x="580.333" y="236" fill="none" stroke="#1E3251" stroke-width="2" stroke-miterlimit="10" width="68" height="57"/>
			<rect x="648.333" y="236" fill="none" stroke="#1E3251" stroke-width="2" stroke-miterlimit="10" width="68" height="57"/>
			<path fill="none" stroke="#1E3251" stroke-width="2" stroke-miterlimit="10" d="M716.333,235.969l90.541,0.125
				c0,0,7.617-0.161,10.887,2.265c4.256,3.158,4.773,9.848,4.773,9.848l4.673,44.728l-110.874,0.035V235.969z"/>
			<path fill="none" stroke="#1E3251" stroke-width="2" stroke-miterlimit="10" d="M308.333,293h67v-57H309.53
				c0,0-1.197,0.415-1.197,2.738C308.333,240.473,308.333,293,308.333,293z"/>
		</g>
		<path fill="#7CAEFA" d="M810.333,324h-431v-1h-3v1h-1v5h1v52h3v-45.113c0,0-0.551-2.123,2-4.902C383.312,328.828,386,329,386,329
			h424.334V324z"/>
		<g>
			<rect x="580.333" y="323" fill="none" stroke="#1E3251" stroke-width="2" stroke-miterlimit="10" width="68" height="58"/>
			<rect x="648.333" y="323" fill="none" stroke="#1E3251" stroke-width="2" stroke-miterlimit="10" width="69" height="58"/>
			<rect x="717.333" y="323" fill="none" stroke="#1E3251" stroke-width="2" stroke-miterlimit="10" width="92" height="58"/>
			<rect x="443.333" y="323" fill="none" stroke="#1E3251" stroke-width="2" stroke-miterlimit="10" width="68" height="58"/>
			<rect x="375.333" y="323" fill="none" stroke="#1E3251" stroke-width="2" stroke-miterlimit="10" width="68" height="58"/>
			<rect x="511.333" y="323" fill="none" stroke="#1E3251" stroke-width="2" stroke-miterlimit="10" width="69" height="58"/>
		</g>
	</g>
</g>
<g id="Text">
	<g>
		<path fill="#FFFFFF" d="M465.004,198.617h-11.067v-25.28h9.838c1.711,0,3.188,0.205,4.43,0.614
			c1.242,0.41,2.176,0.965,2.803,1.664c1.134,1.303,1.701,2.773,1.701,4.412c0,1.978-0.64,3.449-1.918,4.412
			c-0.434,0.338-0.735,0.549-0.904,0.633c-0.168,0.086-0.47,0.224-0.903,0.416c1.567,0.338,2.814,1.043,3.743,2.116
			c0.928,1.073,1.393,2.405,1.393,3.997c0,1.76-0.604,3.314-1.809,4.665C470.912,197.834,468.476,198.617,465.004,198.617z
			 M459.58,183.572h2.676c1.567,0,2.73-0.169,3.49-0.507c0.76-0.337,1.14-1.067,1.14-2.188s-0.351-1.861-1.049-2.224
			c-0.7-0.362-1.881-0.542-3.544-0.542h-2.713V183.572z M459.58,193.844h3.869c1.615,0,2.827-0.199,3.635-0.598
			c0.809-0.397,1.212-1.181,1.212-2.351c0-1.169-0.429-1.94-1.284-2.314s-2.224-0.561-4.104-0.561h-3.327V193.844z"/>
		<path fill="#FFFFFF" d="M485.546,192.09c0.94,1.169,2.207,1.754,3.797,1.754c1.592,0,2.852-0.585,3.779-1.754
			c0.928-1.17,1.393-2.768,1.393-4.793v-13.96h5.643v14.142c0,3.664-1.012,6.479-3.037,8.444c-2.025,1.966-4.619,2.947-7.777,2.947
			s-5.756-0.988-7.793-2.966c-2.037-1.977-3.057-4.785-3.057-8.426v-14.142h5.643v13.96
			C484.136,189.322,484.607,190.92,485.546,192.09z"/>
		<path fill="#FFFFFF" d="M511.929,178.382c-0.543,0.446-0.812,1.037-0.812,1.772c0,0.736,0.33,1.32,0.994,1.754
			c0.662,0.434,2.193,0.947,4.592,1.537c2.4,0.592,4.262,1.477,5.588,2.658s1.99,2.906,1.99,5.172c0,2.267-0.85,4.105-2.551,5.516
			c-1.699,1.41-3.936,2.115-6.709,2.115c-4.002,0-7.607-1.482-10.812-4.448l3.363-4.123c2.725,2.388,5.244,3.581,7.559,3.581
			c1.037,0,1.85-0.223,2.441-0.67c0.59-0.445,0.887-1.049,0.887-1.809c0-0.759-0.314-1.361-0.941-1.808s-1.869-0.897-3.725-1.356
			c-2.941-0.699-5.094-1.609-6.457-2.73c-1.361-1.121-2.043-2.881-2.043-5.28s0.861-4.249,2.586-5.552
			c1.725-1.302,3.875-1.953,6.457-1.953c1.688,0,3.375,0.289,5.062,0.868s3.158,1.399,4.412,2.46l-2.857,4.123
			c-2.193-1.664-4.461-2.496-6.799-2.496C513.214,177.713,512.472,177.936,511.929,178.382z"/>
		<path fill="#FFFFFF" d="M559.146,181.728c0,4.051-1.605,6.667-4.811,7.849l6.4,9.041h-6.943l-5.607-8.064h-3.904v8.064h-5.643
			v-25.28h9.584c3.93,0,6.732,0.663,8.41,1.989C558.306,176.652,559.146,178.786,559.146,181.728z M552.345,184.729
			c0.699-0.627,1.049-1.622,1.049-2.983c0-1.362-0.361-2.297-1.084-2.804c-0.725-0.506-1.99-0.759-3.799-0.759h-4.23v7.486h4.123
			C550.332,185.67,551.646,185.356,552.345,184.729z"/>
		<path fill="#FFFFFF" d="M585.943,195.127c-2.555,2.496-5.701,3.743-9.439,3.743c-3.736,0-6.883-1.247-9.439-3.743
			c-2.555-2.495-3.832-5.6-3.832-9.312s1.277-6.817,3.832-9.312c2.557-2.496,5.703-3.744,9.439-3.744
			c3.738,0,6.885,1.248,9.439,3.744c2.557,2.495,3.834,5.6,3.834,9.312S588.5,192.632,585.943,195.127z M584.027,185.832
			c0-2.254-0.723-4.177-2.17-5.768c-1.447-1.592-3.225-2.388-5.334-2.388c-2.111,0-3.889,0.796-5.336,2.388
			c-1.445,1.591-2.17,3.514-2.17,5.768c0,2.255,0.725,4.172,2.17,5.751c1.447,1.579,3.225,2.368,5.336,2.368
			c2.109,0,3.887-0.789,5.334-2.368S584.027,188.087,584.027,185.832z"/>
		<path fill="#FFFFFF" d="M601.242,192.09c0.939,1.169,2.205,1.754,3.797,1.754s2.852-0.585,3.779-1.754
			c0.928-1.17,1.393-2.768,1.393-4.793v-13.96h5.643v14.142c0,3.664-1.014,6.479-3.039,8.444c-2.025,1.966-4.617,2.947-7.775,2.947
			s-5.756-0.988-7.793-2.966c-2.039-1.977-3.057-4.785-3.057-8.426v-14.142h5.643v13.96
			C599.832,189.322,600.3,190.92,601.242,192.09z"/>
		<path fill="#FFFFFF" d="M632.417,178.219v20.398h-5.643v-20.398h-7.16v-4.882h19.963v4.882H632.417z"/>
		<path fill="#FFFFFF" d="M661.927,173.337v5.026h-12.586v5.209h11.32v4.81h-11.32v5.244h12.984v4.991h-18.625v-25.28H661.927z"/>
		<path fill="#FFFFFF" d="M673.267,178.382c-0.543,0.446-0.814,1.037-0.814,1.772c0,0.736,0.332,1.32,0.994,1.754
			c0.664,0.434,2.195,0.947,4.594,1.537c2.398,0.592,4.262,1.477,5.588,2.658s1.988,2.906,1.988,5.172
			c0,2.267-0.85,4.105-2.549,5.516s-3.938,2.115-6.709,2.115c-4.002,0-7.607-1.482-10.814-4.448l3.363-4.123
			c2.725,2.388,5.244,3.581,7.561,3.581c1.035,0,1.85-0.223,2.439-0.67c0.592-0.445,0.887-1.049,0.887-1.809
			c0-0.759-0.312-1.361-0.939-1.808s-1.869-0.897-3.727-1.356c-2.941-0.699-5.094-1.609-6.455-2.73s-2.043-2.881-2.043-5.28
			s0.861-4.249,2.586-5.552c1.723-1.302,3.875-1.953,6.455-1.953c1.688,0,3.375,0.289,5.064,0.868
			c1.688,0.579,3.158,1.399,4.412,2.46l-2.857,4.123c-2.195-1.664-4.461-2.496-6.799-2.496
			C674.55,177.713,673.81,177.936,673.267,178.382z"/>
	</g>
	<path fill="#FFFFFF" d="M696.371,76.307c-0.342-4.541-0.791-15.346-4.924-25.342c0,0-0.576-1.33-1.336-3.54
		c7.289-6.86,13.574-17.616,7.504-26.404c-2.273-3.292-6.408-4.78-10.064-2.639c-3.262,1.91-4.92,6.759-2.639,10.062
		c0.084,0.12,0.152,0.212,0.211,0.29c-0.129,0.038-0.08,0.98,0.078,0.404c-0.221,0.984-0.57,1.701-1.111,2.58
		c-11.314-16.32-29.68-6.488-38.193,8.973c-1.758,0.333-3.523,1.229-5.162,2.963c-20.08,21.264-31.475,51.209-26.801,83.838
		c1.146,8.035,4.018,15.301,8.016,21.3c-8.373-5.101-14.816-11.882-22.814-18.937c-7.043-6.209-15.137-11.877-15.762-12.287
		c-0.434-0.285,0.318-3.288,0.404-3.881c0.625-4.168,1.09-8.351,1.463-12.543c0.143-1.618,1.141-9.436,1.141-9.436
		c1.678-0.756,3.152-1.67,4.709-2.65c3.375-2.117,6.568-4.514,9.547-7.155c5.484-4.858,10.227-10.523,13.764-16.953
		c0.975-1.767,1.844-3.626,2.576-5.543c0.008-0.021,0,0.001,0.008-0.021c2.139-5.565,2.689-8.197,2.689-11.982
		c0-13.35-7.262-24.271-18.361-24.257c-16.1,0.022-23.574,20.612-26.771,32.974c-0.143,0.549-0.221,1.076-0.25,1.586
		c-1.205,4.971-1.936,10.066-2.475,15.139c-0.416,3.963-0.713,7.942-0.98,11.917c-0.092,1.371-0.551,1.174-1.775,1.625
		c-1.357,0.505-2.688,1.077-4.045,1.586c-0.824,0.308-6.486,1.587-12.014,3.299c-0.357,0.056-0.717,0.114-1.109,0.194
		c-6.084,1.239-12.562,3.105-18.23,4.211c-6.918,1.349-13.928,2.248-20.914,3.248c-1.449-2.858-2.945-5.605-4.383-8.184
		c-4.711-8.463-6.104-11.049-10.031-19.836c-4.34-9.719-1.553-28.559,9.916-34.008c6.496-3.085,16.752-2.729,21.66,3.504
		c5.574,7.08,10.104,22.847-4.158,30.861c-5.963,3.352,3.957,13.595,12.023,5.831c-1.277,1.386-2.697,2.944,0.693-0.714
		c0.244-0.271,0.387-0.432,0.453-0.508c9.084-10.217,11.107-25.141,4.77-36.807c-6.131-11.27-19.553-17.083-32.951-14.281
		c-25.951,5.438-34.225,33.689-25.029,54.307c3.162,7.092,7.518,15.203,11.525,22.464c-13.922,2.909-27.496,7.458-33.572,19.029
		c-0.279,0.513-0.531,1.03-0.752,1.555c-0.047,0.107-0.094,0.214-0.142,0.323c-0.024,0.064-0.06,0.126-0.083,0.19
		c-0.021,0.054-0.036,0.108-0.057,0.162c-1.22,2.97-2.736,6.691-2.955,10.571c-0.217,3.829-0.492,6.873,1.271,11.839
		c3.004,8.464,11.035,14.255,19.004,16.819c12.721,4.096,30.539-2.057,38.996-20.018c5.014-10.648,2.564-22.77-2-33.98
		c2.342-0.308,4.688-0.615,7.029-0.951c7.916-1.137,15.32-2.938,23.102-4.694c2.916-0.657,6.242-1.462,9.639-2.312
		c0.576-0.141,1.154-0.284,1.732-0.438c4.104-1.044,8.215-2.137,11.764-3.127c-0.301,3.984-0.885,12.767-1.322,16.527
		c-11.719-2.285-25.5-1.346-34.523,7.294c-8.26,7.913-12.246,21.526-6.639,32.034c5.859,10.995,21.268,13.104,31.818,8.204
		c11.021-5.122,16.691-17.222,20.055-28.236c28.205,24.541,41.219,30.613,58.523,33.037c3.342,0.468,10.477,0.642,13.16,0.374
		c2.156,0.155,6.865-0.543,12.26-3.53c24.166-13.372,34.17-46.981,33.139-79.679C696.707,80.637,696.683,80.023,696.371,76.307z
		 M593.798,48.08c2.268-3.105,7.266-8.768,9.096-4.27c1.355,2.746,0.4,12.882-0.666,15.574
		c-2.246,7.211-10.748,15.277-16.414,19.689C586.923,70.387,588.419,55.437,593.798,48.08z M507.769,132.343
		c-0.047,0.245-0.109,0.509-0.166,0.765c-0.52,1.366-1.125,2.689-1.719,3.945c-3.219,6.819-8.248,10.658-15.729,11.465
		c-6.254,0.676-12.627-0.949-17.061-5.498c-5.498-5.646-3.426-16.752,1.244-22.115c5.334-6.122,14.779-7.611,22.219-9.426
		c1.834-0.445,3.674-0.826,5.521-1.177C505.378,116.488,509.005,125.778,507.769,132.343z M555.232,144.607
		c-3.76,2.713-8.311,4.904-12.543,1.504c-3.631-2.92-3.398-8.248-1.004-11.854c4.84-7.281,16.395-8.313,24.273-7.078
		C563.732,133.922,560.445,139.708,555.232,144.607z M670.24,40.002c0.561,0.961,0.623,1.365,1.125,2.4
		c-1.34,0.613-2.705,1.585-3.982,2.127C647.15,53.141,666.921,34.312,670.24,40.002z M679.462,103.464
		c-1.699,22.437-12.398,37.293-17.861,42.005c-8.756,7.545-21.553,7.404-28.418-4.811c-6.465-11.508-7.414-52.859,14.738-80.695
		c4.973,1.542,9.432,1.981,15.326,1.316c7.061-0.8,10.252-3.828,13.355-5.043c0.77,2.26,3.621,9.938,3.826,19.852
		c0.057,3.684,0.029,7.261-0.004,10.707C680.517,91.959,679.835,101.232,679.462,103.464z"/>
	<g>
		<path fill="#FFFFFF" d="M465.004,198.617h-11.067v-25.28h9.838c1.711,0,3.188,0.205,4.43,0.614
			c1.242,0.41,2.176,0.965,2.803,1.664c1.134,1.303,1.701,2.773,1.701,4.412c0,1.978-0.64,3.449-1.918,4.412
			c-0.434,0.338-0.735,0.549-0.904,0.633c-0.168,0.086-0.47,0.224-0.903,0.416c1.567,0.338,2.814,1.043,3.743,2.116
			c0.928,1.073,1.393,2.405,1.393,3.997c0,1.76-0.604,3.314-1.809,4.665C470.912,197.834,468.476,198.617,465.004,198.617z
			 M459.58,183.572h2.676c1.567,0,2.73-0.169,3.49-0.507c0.76-0.337,1.14-1.067,1.14-2.188s-0.351-1.861-1.049-2.224
			c-0.7-0.362-1.881-0.542-3.544-0.542h-2.713V183.572z M459.58,193.844h3.869c1.615,0,2.827-0.199,3.635-0.598
			c0.809-0.397,1.212-1.181,1.212-2.351c0-1.169-0.429-1.94-1.284-2.314s-2.224-0.561-4.104-0.561h-3.327V193.844z"/>
		<path fill="#FFFFFF" d="M485.546,192.09c0.94,1.169,2.207,1.754,3.797,1.754c1.592,0,2.852-0.585,3.779-1.754
			c0.928-1.17,1.393-2.768,1.393-4.793v-13.96h5.643v14.142c0,3.664-1.012,6.479-3.037,8.444c-2.025,1.966-4.619,2.947-7.777,2.947
			s-5.756-0.988-7.793-2.966c-2.037-1.977-3.057-4.785-3.057-8.426v-14.142h5.643v13.96
			C484.136,189.322,484.607,190.92,485.546,192.09z"/>
		<path fill="#FFFFFF" d="M511.929,178.382c-0.543,0.446-0.812,1.037-0.812,1.772c0,0.736,0.33,1.32,0.994,1.754
			c0.662,0.434,2.193,0.947,4.592,1.537c2.4,0.592,4.262,1.477,5.588,2.658s1.99,2.906,1.99,5.172c0,2.267-0.85,4.105-2.551,5.516
			c-1.699,1.41-3.936,2.115-6.709,2.115c-4.002,0-7.607-1.482-10.812-4.448l3.363-4.123c2.725,2.388,5.244,3.581,7.559,3.581
			c1.037,0,1.85-0.223,2.441-0.67c0.59-0.445,0.887-1.049,0.887-1.809c0-0.759-0.314-1.361-0.941-1.808s-1.869-0.897-3.725-1.356
			c-2.941-0.699-5.094-1.609-6.457-2.73c-1.361-1.121-2.043-2.881-2.043-5.28s0.861-4.249,2.586-5.552
			c1.725-1.302,3.875-1.953,6.457-1.953c1.688,0,3.375,0.289,5.062,0.868s3.158,1.399,4.412,2.46l-2.857,4.123
			c-2.193-1.664-4.461-2.496-6.799-2.496C513.214,177.713,512.472,177.936,511.929,178.382z"/>
		<path fill="#FFFFFF" d="M559.146,181.728c0,4.051-1.605,6.667-4.811,7.849l6.4,9.041h-6.943l-5.607-8.064h-3.904v8.064h-5.643
			v-25.28h9.584c3.93,0,6.732,0.663,8.41,1.989C558.306,176.652,559.146,178.786,559.146,181.728z M552.345,184.729
			c0.699-0.627,1.049-1.622,1.049-2.983c0-1.362-0.361-2.297-1.084-2.804c-0.725-0.506-1.99-0.759-3.799-0.759h-4.23v7.486h4.123
			C550.332,185.67,551.646,185.356,552.345,184.729z"/>
		<path fill="#FFFFFF" d="M585.943,195.127c-2.555,2.496-5.701,3.743-9.439,3.743c-3.736,0-6.883-1.247-9.439-3.743
			c-2.555-2.495-3.832-5.6-3.832-9.312s1.277-6.817,3.832-9.312c2.557-2.496,5.703-3.744,9.439-3.744
			c3.738,0,6.885,1.248,9.439,3.744c2.557,2.495,3.834,5.6,3.834,9.312S588.5,192.632,585.943,195.127z M584.027,185.832
			c0-2.254-0.723-4.177-2.17-5.768c-1.447-1.592-3.225-2.388-5.334-2.388c-2.111,0-3.889,0.796-5.336,2.388
			c-1.445,1.591-2.17,3.514-2.17,5.768c0,2.255,0.725,4.172,2.17,5.751c1.447,1.579,3.225,2.368,5.336,2.368
			c2.109,0,3.887-0.789,5.334-2.368S584.027,188.087,584.027,185.832z"/>
		<path fill="#FFFFFF" d="M601.242,192.09c0.939,1.169,2.205,1.754,3.797,1.754s2.852-0.585,3.779-1.754
			c0.928-1.17,1.393-2.768,1.393-4.793v-13.96h5.643v14.142c0,3.664-1.014,6.479-3.039,8.444c-2.025,1.966-4.617,2.947-7.775,2.947
			s-5.756-0.988-7.793-2.966c-2.039-1.977-3.057-4.785-3.057-8.426v-14.142h5.643v13.96
			C599.832,189.322,600.3,190.92,601.242,192.09z"/>
		<path fill="#FFFFFF" d="M632.417,178.219v20.398h-5.643v-20.398h-7.16v-4.882h19.963v4.882H632.417z"/>
		<path fill="#FFFFFF" d="M661.927,173.337v5.026h-12.586v5.209h11.32v4.81h-11.32v5.244h12.984v4.991h-18.625v-25.28H661.927z"/>
		<path fill="#FFFFFF" d="M673.267,178.382c-0.543,0.446-0.814,1.037-0.814,1.772c0,0.736,0.332,1.32,0.994,1.754
			c0.664,0.434,2.195,0.947,4.594,1.537c2.398,0.592,4.262,1.477,5.588,2.658s1.988,2.906,1.988,5.172
			c0,2.267-0.85,4.105-2.549,5.516s-3.938,2.115-6.709,2.115c-4.002,0-7.607-1.482-10.814-4.448l3.363-4.123
			c2.725,2.388,5.244,3.581,7.561,3.581c1.035,0,1.85-0.223,2.439-0.67c0.592-0.445,0.887-1.049,0.887-1.809
			c0-0.759-0.312-1.361-0.939-1.808s-1.869-0.897-3.727-1.356c-2.941-0.699-5.094-1.609-6.455-2.73s-2.043-2.881-2.043-5.28
			s0.861-4.249,2.586-5.552c1.723-1.302,3.875-1.953,6.455-1.953c1.688,0,3.375,0.289,5.064,0.868
			c1.688,0.579,3.158,1.399,4.412,2.46l-2.857,4.123c-2.195-1.664-4.461-2.496-6.799-2.496
			C674.55,177.713,673.81,177.936,673.267,178.382z"/>
	</g>
	<path fill="#FFFFFF" d="M696.371,76.307c-0.342-4.541-0.791-15.346-4.924-25.342c0,0-0.576-1.33-1.336-3.54
		c7.289-6.86,13.574-17.616,7.504-26.404c-2.273-3.292-6.408-4.78-10.064-2.639c-3.262,1.91-4.92,6.759-2.639,10.062
		c0.084,0.12,0.152,0.212,0.211,0.29c-0.129,0.038-0.08,0.98,0.078,0.404c-0.221,0.984-0.57,1.701-1.111,2.58
		c-11.314-16.32-29.68-6.488-38.193,8.973c-1.758,0.333-3.523,1.229-5.162,2.963c-20.08,21.264-31.475,51.209-26.801,83.838
		c1.146,8.035,4.018,15.301,8.016,21.3c-8.373-5.101-14.816-11.882-22.814-18.937c-7.043-6.209-15.137-11.877-15.762-12.287
		c-0.434-0.285,0.318-3.288,0.404-3.881c0.625-4.168,1.09-8.351,1.463-12.543c0.143-1.618,1.141-9.436,1.141-9.436
		c1.678-0.756,3.152-1.67,4.709-2.65c3.375-2.117,6.568-4.514,9.547-7.155c5.484-4.858,10.227-10.523,13.764-16.953
		c0.975-1.767,1.844-3.626,2.576-5.543c0.008-0.021,0,0.001,0.008-0.021c2.139-5.565,2.689-8.197,2.689-11.982
		c0-13.35-7.262-24.271-18.361-24.257c-16.1,0.022-23.574,20.612-26.771,32.974c-0.143,0.549-0.221,1.076-0.25,1.586
		c-1.205,4.971-1.936,10.066-2.475,15.139c-0.416,3.963-0.713,7.942-0.98,11.917c-0.092,1.371-0.551,1.174-1.775,1.625
		c-1.357,0.505-2.688,1.077-4.045,1.586c-0.824,0.308-6.486,1.587-12.014,3.299c-0.357,0.056-0.717,0.114-1.109,0.194
		c-6.084,1.239-12.562,3.105-18.23,4.211c-6.918,1.349-13.928,2.248-20.914,3.248c-1.449-2.858-2.945-5.605-4.383-8.184
		c-4.711-8.463-6.104-11.049-10.031-19.836c-4.34-9.719-1.553-28.559,9.916-34.008c6.496-3.085,16.752-2.729,21.66,3.504
		c5.574,7.08,10.104,22.847-4.158,30.861c-5.963,3.352,3.957,13.595,12.023,5.831c-1.277,1.386-2.697,2.944,0.693-0.714
		c0.244-0.271,0.387-0.432,0.453-0.508c9.084-10.217,11.107-25.141,4.77-36.807c-6.131-11.27-19.553-17.083-32.951-14.281
		c-25.951,5.438-34.225,33.689-25.029,54.307c3.162,7.092,7.518,15.203,11.525,22.464c-13.922,2.909-27.496,7.458-33.572,19.029
		c-0.279,0.513-0.531,1.03-0.752,1.555c-0.047,0.107-0.094,0.214-0.142,0.323c-0.024,0.064-0.06,0.126-0.083,0.19
		c-0.021,0.054-0.036,0.108-0.057,0.162c-1.22,2.97-2.736,6.691-2.955,10.571c-0.217,3.829-0.492,6.873,1.271,11.839
		c3.004,8.464,11.035,14.255,19.004,16.819c12.721,4.096,30.539-2.057,38.996-20.018c5.014-10.648,2.564-22.77-2-33.98
		c2.342-0.308,4.688-0.615,7.029-0.951c7.916-1.137,15.32-2.938,23.102-4.694c2.916-0.657,6.242-1.462,9.639-2.312
		c0.576-0.141,1.154-0.284,1.732-0.438c4.104-1.044,8.215-2.137,11.764-3.127c-0.301,3.984-0.885,12.767-1.322,16.527
		c-11.719-2.285-25.5-1.346-34.523,7.294c-8.26,7.913-12.246,21.526-6.639,32.034c5.859,10.995,21.268,13.104,31.818,8.204
		c11.021-5.122,16.691-17.222,20.055-28.236c28.205,24.541,41.219,30.613,58.523,33.037c3.342,0.468,10.477,0.642,13.16,0.374
		c2.156,0.155,6.865-0.543,12.26-3.53c24.166-13.372,34.17-46.981,33.139-79.679C696.707,80.637,696.683,80.023,696.371,76.307z
		 M593.798,48.08c2.268-3.105,7.266-8.768,9.096-4.27c1.355,2.746,0.4,12.882-0.666,15.574
		c-2.246,7.211-10.748,15.277-16.414,19.689C586.923,70.387,588.419,55.437,593.798,48.08z M507.769,132.343
		c-0.047,0.245-0.109,0.509-0.166,0.765c-0.52,1.366-1.125,2.689-1.719,3.945c-3.219,6.819-8.248,10.658-15.729,11.465
		c-6.254,0.676-12.627-0.949-17.061-5.498c-5.498-5.646-3.426-16.752,1.244-22.115c5.334-6.122,14.779-7.611,22.219-9.426
		c1.834-0.445,3.674-0.826,5.521-1.177C505.378,116.488,509.005,125.778,507.769,132.343z M555.232,144.607
		c-3.76,2.713-8.311,4.904-12.543,1.504c-3.631-2.92-3.398-8.248-1.004-11.854c4.84-7.281,16.395-8.313,24.273-7.078
		C563.732,133.922,560.445,139.708,555.232,144.607z M670.24,40.002c0.561,0.961,0.623,1.365,1.125,2.4
		c-1.34,0.613-2.705,1.585-3.982,2.127C647.15,53.141,666.921,34.312,670.24,40.002z M679.462,103.464
		c-1.699,22.437-12.398,37.293-17.861,42.005c-8.756,7.545-21.553,7.404-28.418-4.811c-6.465-11.508-7.414-52.859,14.738-80.695
		c4.973,1.542,9.432,1.981,15.326,1.316c7.061-0.8,10.252-3.828,13.355-5.043c0.77,2.26,3.621,9.938,3.826,19.852
		c0.057,3.684,0.029,7.261-0.004,10.707C680.517,91.959,679.835,101.232,679.462,103.464z"/>
</g>
</svg>
